<?xml version="1.0" encoding="utf-8"?>
<!-- Generator: Adobe Illustrator 28.0.0, SVG Export Plug-In . SVG Version: 6.00 Build 0)  -->
<svg version="1.1" id="Layer_1" xmlns="http://www.w3.org/2000/svg" xmlns:xlink="http://www.w3.org/1999/xlink" x="0px" y="0px"
	 viewBox="0 0 4221.2 4247.7" style="enable-background:new 0 0 4221.2 4247.7;" xml:space="preserve">
<style type="text/css">
	.st0{fill:#7EDCFC;}
	.st1{fill:#476480;}
</style>
<rect x="0" y="1.9" class="st0" width="4221.2" height="4245.8"/>
<g>
	<g id="Canada_00000058556941491141443500000010065204220133354633_">
		<path id="CA-MB_00000009555368948060078890000011609425161627519667_" class="st1" d="M-194-2052.8l-6.8,59.6
			c-3.6,32.6-8,66-9.5,74c-1.6,8-5.6,37.4-9.5,66c-4,28.6-8,58.1-9.5,66c-1.6,8-9.9,68.8-18.7,135.6
			c-15.5,114.5-15.5,123.3-0.4,149.1c15.9,26.6,15.5,27.8-10.7,60.4c-14.7,18.3-31.4,40.6-37.4,49.3c-6,8.4-13.9,70.4-17.5,137.6
			c-3.6,67.2-8,139.6-9.5,160.2c-1.6,20.7-6,75.9-9.1,122.5c-3.2,46.5-7.6,110.1-9.9,141.2c-9.5,129.2-13.5,182.9-18.7,254.1
			c-3.2,41.4-7.2,96.6-9.5,122.5c-2.4,25.8-6.4,89.5-9.5,141.2c-3.2,51.7-7.2,110.9-9.1,132c-2,20.7-6,82.3-9.5,136.4
			s-7.6,113.7-9.5,132c-1.6,18.3-6,81.5-9.5,141.2s-7.6,114.5-9.1,122.5c-4.8,25.8-17.9,239-18.3,301.4l-0.4,61.2l56.5,5.6
			c90.7,9.1,176.9,19.1,202.4,22.7c13.1,2,46.9,6,75.1,9.1c54.9,6,86.3,9.5,169.4,19.9c28.6,3.6,92.2,9.1,141.2,12.3
			c48.9,3.2,132.4,7.2,185.3,8.7l95.4,2.8l6-45.3c3.2-25,8-96.2,10.7-158.2c2.8-62,7.2-142.7,9.1-178.9c2-36.2,6.4-129.6,9.5-207.2
			c10.3-269.2,13.5-297,35.8-334.8c11.5-19.1,78.3-95.8,148.7-170.6c70.4-74.4,146.7-156.3,169.4-182.1
			c22.7-25.8,45.7-51.7,50.9-57.7c90.7-102.2,134.4-152.3,182.9-210.7c32.2-38.6,87.9-103,124.1-142.3
			c35.8-39.8,79.5-88.7,97.4-108.5c17.9-19.9,53.7-59.6,79.9-88.3c26.2-28.6,47.7-56.5,48.1-61.6c0-10.7-49.3-31-91.8-37.8
			c-65.2-10.7-83.1-17.1-93.8-32.2c-9.1-13.1-24.3-16.3-68.8-15.1c-31.4,0.8-60,6-63.6,11.9c-7.6,11.5-116.5,25-137.6,17.1
			c-9.5-3.6-11.5-11.5-6.4-25c7.6-19.9,5.6-31.4-21.1-157.9c-19.1-90.7-23.9-117.7-30.6-169.4c-7.6-59.6-31.8-77.5-130-98.2
			c-63.2-13.1-84.3-21.9-92.6-37c-11.9-21.5-11.5-95.8,0.4-196.4l7.6-63.6l-50.5-1.2c-27.4-0.8-53.3-2-57.3-2.8
			c-4-0.8-39-4.8-77.5-9.1c-38.6-4.4-77.1-8.7-84.7-9.9c-8-1.2-43.7-5.6-79.5-9.5c-35.8-4-74-8.3-84.7-9.9
			c-10.7-1.6-44.9-5.6-75.9-8.7c-31-3.2-90.3-9.5-132-14.3c-41.7-4.8-100.6-10.7-132-13.9s-76.3-8-100.2-10.7L-194-2052.8z
			 M75.2-434.1c36.2,0.4,60.8,17.5,78.7,53.3c10.7,21.5,22.7,41,26.6,43.7c17.5,12.3,60.8,126.8,52.5,140
			c-5.2,8.4,11.9,60,30.2,93.4c6.4,11.5,10.7,43.3,9.5,70.8c-2,52.5,29,167.8,58.8,218.7c11.9,20.7,17.5,53.7,19.5,118.1
			c2.8,88.3,2.4,89.5-19.9,92.6c-12.3,1.6-30.6,13.5-40.2,25.8c-20.3,25.8-37.4,28.6-57.3,9.1c-15.9-15.9-11.1-83.5,8.4-113.3
			c6.8-10.7,14.7-31.4,17.5-45.7c2.8-14.7,9.9-33,16.3-41c18.7-22.7,17.9-44.9-1.6-57.3c-15.5-9.5-20.3-8.7-29.8,7.6
			c-12.7,20.7-35.8,25.4-35.8,7.6c0-6,5.2-24.7,10.7-41c25.4-70-15.9-130.8-75.1-110.1c-24.3,8.4-31,6.8-46.9-10.7
			c-10.3-11.1-24.7-40.2-33-64.8c-8-24.7-25-58.4-37.8-75.1c-16.3-21.9-22.3-39.4-19.1-59.2c4-25.8,0.4-30.2-41.7-52.5
			c-61.2-31.8-86.3-22.7-87.9,32.6c-0.8,21.1-2.8,59.6-4.4,85.5c-8.4,129.2-8.4,129.6,29.8,160.2c82.7,65.6,89.1,74,102.6,132
			c7.2,31,12.7,72,12.7,90.3c0,18.7,11.1,55.7,24.3,81.9c31.4,62,32.6,110.5,3.2,118.5c-31,8.4-42.9,7.2-50.5-4.8
			c-6.4-10.3-32.2-130.4-50.5-233c-10.3-58.1-23.9-75.9-89.9-118.5c-52.1-33.8-77.5-60-74.8-77.9c0.8-6.4,2.4-19.9,2.8-29.8
			c0.8-9.9,7.2-23.9,14.3-31c8.4-8.4,12.7-34.6,12.3-75.1c-0.4-62.4,0-62-36.2-82.3c-40.2-22.7-54.9-44.1-54.9-79.9
			c0-19.5,4.8-24.3,23.1-24.3c35,0,46.5-29.8,23.5-59.6c-10.3-13.1-18.7-28.2-18.7-34.2c0-12.3,44.1-31.8,69.6-30.6
			c22.7,1.2,71.6,47.3,71.6,67.6c0,8.4,9.9,24.7,21.9,35.8l21.5,20.3l12.7-34.2C-35-372.9,3.2-421.4,33.8-428.5
			C49.7-432.1,63.3-434.1,75.2-434.1z"/>
		<g id="CA-NL_00000066512267074034552100000016049999132440636288_">
			<path class="st1" d="M5113.3-464.3c-1.6-1.6-19.1-4.8-39-7.6c-19.9-2.8-44.1-11.9-54.1-21.1c-14.3-13.1-29.4-15.5-72.4-11.5
				c-68.8,6-75.9,3.2-82.7-33.4c-11.1-60.4-12.3-68-13.1-78.7c-0.4-6-7.2-17.5-15.1-25.4c-13.1-13.1-17.5-12.7-44.9,4
				c-16.7,10.3-39,18.3-50.1,18.7c-23.9,0-56.9-33-42.1-42.1c10.7-6.8,13.1-62.8,4.4-95.8c-3.6-12.7-20.3-25.8-44.5-35.4
				c-69.6-27-142.7-140.8-118.9-184.9c5.6-9.9,13.9-18.3,19.1-18.3c9.5,0,26.2-36.2,31-68.4c1.6-10.3,11.9-25.4,22.7-34.2
				c11.1-8.4,24.3-26.6,29.4-40.6c8.7-23.9,11.1-24.7,50.1-16.3c22.3,4.8,51.3,16.3,64,25c33,22.7,67.6,15.9,89.9-17.9
				c17.9-27.4,20.7-28.2,65.6-21.9c25.8,3.6,54.5,6.4,63.6,6c13.5-0.4,15.9,5.6,13.1,32.2c-2,17.9-5.2,33.8-7.2,35
				c-41.7,28.2-74,56.9-78.3,70c-2.8,9.1-17.9,25-33.4,35.4c-33,21.9-35,33.4-9.9,56.1c22.7,20.3,78.3,13.1,96.6-12.3
				c22.3-30.6,69.2-47.7,103.8-37.4c44.5,13.5,78.7-2.4,98.2-46.1c16.7-36.6,18.3-85.5,4-99.8c-4.8-4.8-16.7,0.4-27.8,11.5
				c-12.3,12.3-31.8,19.9-52.1,19.9c-70.8,0-77.1-18.7-33.8-100.2c15.5-29,28.2-62.4,28.2-74.4c0-28.6-31-100.2-50.5-116.1
				c-8.4-7.2-15.5-19.9-15.5-28.2c0-26.2-46.9-108.1-77.5-134.8c-19.9-17.5-31-38.2-36.2-66c-4-22.3-11.9-68-17.9-101.8
				c-6-33.8-11.1-88.7-11.5-122.5c-0.8-70.8-18.3-108.9-53.7-116.5c-13.5-2.8-38.2-13.9-54.9-24.3c-34.2-21.1-39.8-49.3-16.3-82.3
				c9.9-13.9,11.5-27,6-42.1c-8.4-22.7-8-31,3.2-81.9c7.2-32.6,2-34.2-83.9-30.6c-20.3,0.8-34.6-0.8-32.2-3.6
				c2.8-2.8-2-35.8-11.1-73.2c-12.3-53.3-19.9-68.8-34.2-70.8c-9.9-1.6-23.1-10.3-28.6-19.5c-13.5-21.5-52.1-162.6-46.5-168.6
				c9.9-9.9,119.3,87.1,157.5,139.6c22.3,30.6,47.7,55.7,56.5,55.7c8.7,0,25,12.3,35.8,27.4s33.8,36.6,51.3,47.3
				c20.7,12.7,38.6,35.8,51.7,66.4c13.1,30.2,25.8,46.9,36.6,47.3c8.7,0,25.4,14.3,36.6,31.8c15.9,24.3,29,33,58.8,37.8
				c33,5.2,41,11.5,58.8,46.1c11.5,21.9,23.1,56.9,26.2,77.1c5.2,35,8,38.2,48.9,49.7c23.9,6.8,50.5,20.3,59.6,29.8
				c14.7,16.3,14.7,21.9,2.4,64c-11.5,39-11.9,50.1-1.2,69.2c6.8,12.7,14.7,33.4,17.5,46.5c4.4,20.3,18.7,28.2,106.6,58.8
				c55.7,19.5,108.9,35.4,118.5,35.4c9.1,0,33,17.5,52.9,39l36.2,39l83.5,4c46.1,2,99.8,9.9,119.3,17.5
				c36.6,13.9,59.6,8.7,88.3-19.9c9.1-9.1,26.2-7.6,80.3,7.2c37.8,10.3,71.2,22.7,74.4,27.8c12.3,19.1-3.6,53.7-29.4,64.4
				c-14.7,6-48.9,36.6-76.7,68c-27.8,31.4-62.8,70.4-78.3,86.7c-15.5,16.3-48.1,50.9-72.4,76.3c-44.9,47.7-66,104.2-41.7,113.3
				c19.9,7.6,116.9-94.2,123.7-130.4c4.4-22.3,27.8-55.3,78.3-108.9c65.2-69.6,75.5-77.1,107.4-77.1c29,0,38.6,5.2,56.5,31
				c17.9,26.2,25.4,30.2,44.9,24.7c44.1-12.7,91.1-8.7,114.1,8.7c12.3,9.5,47.7,31.4,79.1,48.9c31,17.1,57.7,32.2,59.2,33
				c1.6,1.2-2.4,13.1-8.7,26.6c-15.9,35,2.8,91.8,43.3,132c31,31,70.8,97.8,70.8,118.9c0,15.5-64,113.7-96.6,147.9l-28.6,30.2
				l-38.6-48.9c-21.1-27-42.5-51.7-47.3-55.3c-5.2-3.6-24.3,1.2-42.5,10.3c-18.3,9.1-55.7,22.3-82.7,28.6
				c-27,6.4-79.9,23.5-117.7,37.8s-114.9,43.7-171.8,65.6c-56.9,21.5-123.7,47.7-148.7,58.1c-89.9,37.4-285.5,105-322.5,111.3
				c-30.6,5.2-47.7,1.6-90.3-19.1c-29-14.3-56.9-23.1-62-19.5c-5.2,3.6-10.3,23.5-10.7,44.1c-1.6,46.5-11.5,130.4-16.3,135.6
				C5161.8-465.5,5117.3-460.7,5113.3-464.3z"/>
		</g>
		<g id="CA-NU_00000072986143335734024110000003557525855278082701_">
			<path class="st1" d="M2611.1-203.1c-48.5-19.5-57.7-26.6-57.7-45.7c0-25.8,5.2-28.2,70-35.4c43.3-4.8,48.5-2.8,73.6,25
				c34.6,38.6,33,75.9-3.6,77.9C2679.9-180.8,2642.9-190.4,2611.1-203.1z"/>
		</g>
		<path id="CA-ON_00000130621062244423143850000003932427823226753409_" class="st1" d="M2595.6,2497.9
			c9.9-19.5,23.1-27.8,49.3-32.2c19.5-3.2,41.4-9.5,47.7-13.9c17.5-11.1,26.6-77.1,11.9-86.3c-8.4-5.2-9.1-12.7-2.8-25
			c5.2-9.5,11.9-33.4,15.5-52.9c3.6-19.1,13.9-40.6,23.5-46.9c33.8-23.9,63.6-78.7,60.4-112.1c-1.6-17.5-3.6-66.4-4.4-108.1
			c-1.2-71.6,0.8-80.3,32.2-136.8l33.8-60.4l-16.7-37.4c-9.1-20.7-25.8-45.3-37-55.3c-19.5-17.5-27.4-43.3-13.1-43.3
			c4,0,32.2,25.4,62.4,56.1c50.1,50.9,101,83.9,151.9,97.8c51.7,14.3,79.9-72.4,41.7-127.6c-25-36.2-127.6-147.5-153.9-167
			c-9.9-7.2-45.7-16.3-79.9-20.3s-85.5-13.9-113.7-21.9c-36.6-10.7-91.8-14.7-190.1-14.7c-129.2,0-139.6-1.2-152.3-19.5
			c-7.6-10.7-35.8-31-63.2-44.9c-40.6-20.7-50.1-30.6-50.9-50.9c-0.8-13.9-13.1-37.8-28.2-53.7c-23.1-24.3-25-29-11.5-34.2
			c21.1-8,19.9-28.2-3.6-60.8c-10.7-14.7-27.4-45.7-37.4-68.4c-15.9-36.6-23.1-42.1-54.5-47.3c-36.2-6-136.4-53.7-160.6-76.7
			c-7.2-6.8-13.9-28.6-15.5-48.5c-1.2-19.9-5.6-48.5-9.5-63.2l-7.2-27l-75.9,5.2c-70.4,4.8-79.9,2.8-130.4-22.7l-54.5-27.4l-39,24.7
			c-35.4,22.3-37.4,25.8-23.9,39.4c13.5,13.5,9.1,18.7-48.1,56.1c-34.6,22.7-78.3,57.7-97,77.5c-38.2,40.6-42.5,41.4-177.7,19.1
			c-39-6.4-100.6-12.3-137.2-13.5c-63.2-1.6-126.4-23.9-126.4-44.5c0-4-10.7-7.6-24.3-7.6c-14.7,0-37.8-12.7-58.8-33
			c-34.6-32.6-35.4-33-121.3-33c-62.4,0-90.3-4-99.8-13.5c-7.6-7.6-29.8-16.3-50.1-19.9c-51.7-9.5-57.3-16.3-64.4-82.3
			c-6-53.7-8.7-60-36.6-73.6c-28.6-14.3-29.8-17.1-29-70.8c1.2-60,12.3-312.5,17.9-404c2-31,6.4-123.7,9.5-206
			c7.6-188.1-8.7-158.2,215.9-391.6c47.3-49.3,113.3-120.9,147.1-159s65.2-74.4,70.8-79.9c5.2-5.6,60.4-69.6,122.5-142.3
			c62-72.4,134-155.5,159.8-184.1c126.8-140.4,183.7-204.4,201.2-225.8l18.7-23.5l31.4,17.9c38.6,21.9,101.8,81.1,101.8,95.4
			c0,5.6,13.9,23.9,31,40.6c23.1,22.3,45.7,33,87.1,41c38.6,7.6,64.8,19.1,84.7,37.4c27,25.4,50.9,34.2,94.6,35.8
			c10.7,0.4,42.5,21.1,70.8,46.5l51.3,45.7l176.5,6c153.9,5.2,181.3,8.4,215.5,25.8l39,19.9l-6.4,81.5c-3.6,44.9-9.9,85.5-14.3,89.9
			s-0.4,21.1,9.5,37.4c9.9,15.9,20.3,48.5,23.5,72c10.3,75.1,11.9,83.1,20.7,100.6c4.8,9.5,7.6,37,5.6,60.4
			c-2.4,35,2.4,51.7,25,87.5c36.2,57.3,149.5,194,160.6,194c21.5,0,81.5,77.9,98.6,127.2l18.3,53.3l58.1-4.4l58.1-4.4l6,48.1
			c9.5,75.9,13.5,110.5,18.7,165.8c2.8,28.6,7.2,62.4,9.1,75.1c2.4,13.1,6.8,48.9,9.9,79.9s7.2,67.2,9.1,79.9
			c4.4,31,13.5,106.2,19.5,164.6c2.8,25.8,6.8,62,9.1,79.9c14.3,113.3,23.5,190.5,28.2,239c3.2,30.6,18.7,83.9,34.2,118.5
			c23.9,53.3,37,69.2,83.1,101.8c60.8,42.9,145.9,73.2,231.4,81.9c39,4,70,14.3,99.8,33.4c23.9,15.1,51.3,27.8,61.2,27.8
			c9.9,0,29.4,16.3,43.7,36.6l25.8,36.6l81.5-4.4c70.4-4,89.5-8.7,140.8-37c59.6-32.6,107.4-47.7,108.5-34.2
			c1.6,14.3,6.8,38.2,13.1,58.1c5.2,15.9-1.2,26.6-29.4,50.5c-58.8,49.7-107.8,101.8-177.3,188.1c-36.2,44.9-70,81.9-75.1,82.3
			c-15.9,1.2-53.7,36.6-48.1,45.3c11.1,17.9-64.4,46.5-127.2,48.1c-112.5,3.2-274.4,70-308.9,127.2c-34.2,56.5-33.8,70.4,1.6,85.1
			c17.9,7.6,40.6,11.1,50.5,8.7c13.9-3.6,22.3,3.2,33.8,27.8c18.3,38.6,11.9,43.7-51.3,43.7c-38.2,0-141.2,39-167.4,63.2
			c-12.3,11.5-11.5,15.1,9.1,30.6l23.5,17.5l-25.8,6.4c-14.3,3.6-44.5,1.6-67.6-4c-89.5-22.7-110.5-12.7-221.5,103.8
			c-60.8,64-75.1,74-103.8,74.8c-18.3,0.4-46.5,2.4-63.6,4l-30.6,3.2L2595.6,2497.9z"/>
		<g id="CA-QC_00000014613080415936597410000002536805005811599756_">
			<path class="st1" d="M4002,1520.2c-8.4-14.3-17.1-41-19.1-58.8c-3.6-31-6-33-42.5-35.8c-39-2.8-89.5,16.7-145.1,56.1
				c-19.1,13.5-41.7,17.5-95.4,17.5c-70,0-70.4-0.4-92.6-33c-12.3-18.3-30.2-33-40.2-33s-39.4-13.1-65.6-29.4
				c-33.4-20.3-63.6-30.6-99.8-33.8c-79.5-6.8-167.8-35.8-222.3-73.2c-40.2-27.4-54.1-44.9-77.5-97c-17.5-38.2-31-87.5-34.6-124.5
				c-3.2-33.8-7.6-74-9.9-89.5c-2-15.5-8.4-68.4-14.3-117.7c-5.6-49.3-12.3-104.2-14.3-122.5c-2-18.3-6.4-52.1-9.1-75.1
				c-2.8-23.5-17.9-152.7-33.4-287.1c-15.5-134.8-30.6-256.1-33.4-269.6c-4.4-21.5-1.6-25.4,24.3-30.6c27.4-5.6,29-8,23.1-35
				c-4.8-22.7-0.8-37.4,19.5-68c14.3-21.5,25.8-50.1,25.8-62.8c0-13.1-17.1-59.6-38.2-103.8c-21.1-44.1-42.9-97-48.5-117.7
				c-5.6-20.7-17.5-48.1-26.2-60.4c-10.7-15.5-15.1-37.4-13.5-68.4c2.8-49.3-22.3-103-56.5-121.3c-10.7-6-17.9-19.9-18.3-35.4
				c0-13.9-8.4-36.2-18.7-49.3c-10.3-13.1-18.7-27.8-18.7-33c-0.4-13.9,45.7-54.9,99-87.5c25.8-15.9,60.4-44.9,76.7-64.8
				c16.3-19.9,48.9-56.5,72-81.9c28.2-30.6,53.3-74,76.3-130.4c31.4-76.7,34.2-91.8,32.6-164.2c-1.2-58.4-8.7-100.2-27.8-156.7
				c-14.3-42.5-28.6-88.3-31.8-102.2c-9.9-43.7-93.8-134-154.7-166.2c-72.8-38.6-128.8-94.6-131.6-131.2
				c-1.2-15.5,5.2-44.5,13.5-64.4c8.3-19.9,17.1-42.9,18.3-50.9c1.6-8,11.1-21.1,21.9-29.8c14.7-11.9,19.5-26.6,19.5-60.4
				c0-31.8,5.6-50.9,18.3-64.8c17.1-18.3,17.5-22.7,5.2-58.4c-7.6-21.5-15.5-49.3-17.5-62c-5.2-28.6-29.8-77.5-58.4-114.9
				c-19.5-25.4-21.5-38.6-21.5-135.2c0-77.1-3.6-111.3-13.1-122.5c-7.2-8.7-25-44.5-39.8-79.9l-26.6-64.4l24.3-49.3
				c23.1-46.9,26.2-49.7,68.8-55.7c70.8-9.5,130.8-7.2,171.8,7.2c53.7,19.1,128.8,25.8,159.4,14.3c14.3-5.6,42.5-26.6,63.2-46.9
				c20.7-20.3,42.1-37,47.3-37c16.7,0.4,198.4,96.2,258.8,136.4c46.1,30.6,56.5,42.1,54.9,61.2c-0.8,13.1,5.6,34.2,14.3,47.7
				c14.3,21.5,25.8,25,112.5,35.8c53.3,6.4,117.3,18.3,142.3,26.6l45.7,14.7l-6.4,51.3c-6.4,50.1,0.8,82.7,44.1,205.2
				c5.6,15.5,9.5,39.8,9.1,54.1c-0.4,15.9,8,35,22.7,49.7c13.1,13.1,32.2,42.9,42.5,66l18.7,42.1l46.5-5.6c44.5-5.6,48.1-4,96.2,37
				c27.4,23.5,61.6,45.3,75.5,48.9c14.3,3.6,25.8,10.3,25.8,14.7c0,17.5,19.9,7.2,60-31.8c31-29.8,42.9-50.1,47.7-78.7
				c4.4-27.4,12.7-41.7,27.4-48.5c13.1-6,26.2-25.4,34.2-50.5c14.7-46.5,13.1-144.3-2.8-173c-6-10.3-9.1-23.1-8-28.2
				c1.6-5.2,7.2-32.6,12.3-60.8c8.7-46.5,31-80.3,46.5-70.4c3.2,2,9.1,19.9,12.7,39.4c8,43.7,48.5,115.3,65.2,115.3
				c11.5,0,38.2,94.2,33.4,117.7c-5.2,25.8,2.4,29.4,54.5,25.4l54.1-4l-1.6,59.6c-0.8,33-6,74-11.5,91.5
				c-6.4,20.7-6.8,37.8-1.2,48.5c10.7,20.3,61.2,52.5,95.8,61.2c31.8,8,34.2,16.3,40.6,126.8c2.8,48.9,11.1,110.1,18.3,136.4
				c7.2,26.2,15.5,62.4,18.7,81.1c3.6,22.7,15.1,40.6,34.6,54.9c28.2,20.7,74,103.4,74.4,133.6c0,8.4,8,22.3,17.5,31
				c9.5,8.7,25,32.2,33.8,52.1c15.9,35,15.9,37.8-3.2,80.7l-19.9,44.5l-49.3-5.2c-27-2.8-62.4-8-78.3-11.5
				c-25.4-5.6-31.4-2.4-51.7,27.4c-25,37-41.4,41.7-66,19.1c-9.1-8.4-42.1-20.3-74-26.6c-62.8-13.1-68.8-10.3-79.5,34.6
				c-3.6,14.7-16.3,30.6-29.4,37c-17.9,8.4-23.5,17.9-23.5,42.1c0,22.3-8.4,40.2-29,62c-25.4,26.6-28.6,35.4-23.9,68.8
				c2.8,21.1,11.1,49.3,17.9,62.8c21.5,41.4,77.5,97.8,116.1,116.5c41,19.9,47.7,42.5,29,96.6c-10.3,29.4-9.1,33,16.3,54.9
				c27.4,23.9,60,25.8,114.9,8c17.9-6,20.3-2,26.2,42.1c4.4,33.8,13.9,56.1,30.2,72.4c21.5,21.5,28.2,23.1,75.5,17.1
				c42.5-5.2,55.3-3.6,70.4,10.3c10.3,9.1,25.8,17.9,34.6,19.9c43.7,8,140,10.3,150.7,4c6.8-4,13.9-26.2,16.3-48.9
				c5.2-53.3,12.3-116.1,13.1-119.3c0.4-1.6,18.3,6.4,39.8,17.5c28.6,14.7,49.3,18.3,77.5,14.7c41-5.6,191.6-56.9,349.5-118.9
				c242.1-95.4,391.2-149.9,446.5-164.2c33.4-8.4,66.4-20.3,73.6-25.8c7.6-6.4,15.9-7.2,20.3-2c21.9,25.4,67.2,87.5,67.2,91.8
				c0,2.8-26.6,25.4-58.8,50.1c-86.3,66-138,124.5-143.5,163.4c-2.8,18.3-23.9,71.2-47.3,117.7c-23.1,46.5-46.1,95.4-50.9,108.1
				c-10.7,29.4-163,110.9-260,139.6c-36.2,10.7-116.9,34.2-178.9,52.1c-364.2,105.4-540,171.8-573,215.5
				c-9.5,13.1-21.5,44.1-26.2,69.6c-4.8,25-17.1,74.4-27.8,109.3c-17.1,55.3-22.7,63.6-42.1,63.6c-44.9,0-137.2,105-169.8,193.2
				c-9.5,25.8-31,68.4-47.3,94.2c-16.3,25.8-31.8,62-34.6,79.9c-10.7,78.7-155.1,312.9-230.2,373c-105.8,84.3-250.9,239-237.4,252.5
				c2,2,39.8-36.2,83.9-84.7s107.8-109.3,141.9-135.2c58.4-44.1,122.5-111.7,165.4-174.9c38.2-56.5,107-192.4,107-211.9
				c0-11.1,4.8-29.4,10.7-40.6c17.1-32.6,103.8-139.6,140-172.6c18.3-16.7,54.1-49.3,79.9-73.2c25.8-23.9,72.4-58.8,103.8-77.5
				c31.4-19.1,88.7-56.5,127.2-83.5c49.3-34.2,89.5-53.3,132-64c57.7-14.3,64.8-14.3,116.9,2c45.3,13.9,58.1,23.1,72,48.9
				c37.4,71.2,31.4,119.7-22.7,185.3c-52.5,63.6-71.6,75.9-126.8,81.9c-108.1,11.1-198,36.2-227.4,64
				c-38.2,35.8-69.6,46.5-143.9,49.3c-89.1,3.6-94.2,9.9-87.1,104.2l6,77.1l-36.2,6c-19.9,3.2-47.7,3.6-61.2,1.2
				c-18.7-3.2-29,0.8-40.2,16.7c-18.3,26.2-58.4,156.7-66,214.3c-2.8,23.5-9.5,70-14.3,103.8c-4.8,33.8-11.1,79.5-13.1,101.8
				c-7.2,72.8-35.4,134.8-72.8,161.4c-18.7,13.1-43.7,38.2-55.3,54.9c-11.5,17.1-30.2,32.6-41,34.6c-10.7,2.4-88.3,19.1-172.2,37.4
				c-83.9,18.3-174.9,33.4-202.8,33.4C4022.7,1546.4,4015.9,1543.6,4002,1520.2z"/>
		</g>
		<path id="CA-SK_00000167376650976464423910000008282121189452558503_" class="st1" d="M-507.7,704.3c-2-2-37.8-6.4-79.1-9.9
			c-41.4-3.6-85.9-8-99-9.9c-13.1-2-50.9-6.4-84.7-9.5c-33.8-3.2-72-7.6-84.7-9.1c-13.1-2-50.9-6-84.7-9.5
			c-33.8-3.6-165-29.4-291.8-58.1c-126.8-28.6-237-53.3-244.9-54.9c-42.9-9.1-67.2-14.7-122.5-27.4c-33.8-8-69.6-15.9-79.9-17.5
			c-10.3-2-51.7-10.7-92.2-19.9c-59.6-13.5-72.4-19.9-68.4-32.2c4.4-14.3,78.7-318.5,85.1-349.9c1.6-8,16.3-69.2,32.6-136.4
			c16.3-67.2,44.5-186.1,63.2-263.6c18.7-77.5,54.9-228.2,80.3-334.4c25.8-106.2,48.5-201.6,50.5-211.9s16.7-71.6,32.2-136.4
			s47.7-198.4,71.2-296.6c23.5-98.6,57.3-238.2,74.8-310.9c17.5-72.4,47.3-196,66-274.7l34.6-142.7l48.9,4
			c26.6,2.4,69.6,7.2,95,11.1s79.1,3.2,119.3-1.6c69.2-8.3,76.3-7.2,130.4,17.1c53.3,23.9,75.9,25.8,75.9,6
			c0-10.7-200-108.1-249.7-121.7c-20.7-5.6-47.3-10.3-58.8-10.3s-29.8-8.3-40.2-19.1c-20.7-20.7-48.1-23.9-75.9-9.1
			c-21.5,11.5-21.9,8.3-8-56.9c8-37.8,13.5-46.9,25.8-43.3c13.9,4,80.3,17.5,143.5,29.4c12.7,2.4,31.4,6,41.7,8.3
			c31.4,6.8,422.3,82.7,447.3,87.1c13.1,2.4,74.4,14.3,136.4,26.6c62,12.3,130,24.3,150.7,26.2c36.2,3.6,37.8,4.8,36.2,35.8
			c-0.8,17.9-12.3,110.9-25.4,206.8c-13.1,95.8-27,195.2-30.2,221.5c-6,46.1-17.1,70.8-33,70.8c-14.3,0-70.8,62.4-83.1,92.2
			c-8.7,21.5-9.5,37.4-2.4,60.4c21.1,66.4,17.1,99-15.1,132c-21.1,21.5-27.4,35-21.9,44.1c6.8,10.7,13.9,8.7,38.2-11.9
			c16.3-13.9,36.2-25,43.7-25c14.3,0,13.9,29.8-1.2,216.7c-2.4,28.6-6.8,89.9-9.5,136.4s-7.2,103.8-9.1,127.2
			c-2,23.5-6.4,84.7-9.5,136.4s-7.2,108.9-9.1,127.2c-2,18.3-6.4,79.5-9.5,136.4c-3.2,56.9-7.6,114.1-9.1,127.2
			c-1.6,13.1-6.4,74.4-9.9,136.4s-7.6,119.3-9.1,127.2c-1.6,8-5.6,67.2-9.5,132c-3.6,64.8-8,124.1-9.5,132c-1.6,8-5.6,67.2-9.5,132
			c-3.6,64.8-8.4,125.2-9.9,134.4c-1.6,9.1-4,44.1-5.2,77.5C-481.5,701.5-490.6,720.2-507.7,704.3z"/>
	</g>
	<g id="USA_00000168103695853429353160000011721432250747871640_">
		<path id="US-AL_00000160169656818722580300000005521358925466363313_" class="st1" d="M1775.4,5543.6c-4-10.7-13.5-12.7-38.6-8
			l-33,6.4l5.2-356.7c2.8-196.4,7.2-375.7,9.5-399.2s7.2-78.3,11.1-122.5c3.6-44.1,8-87.1,9.9-95.8c1.6-8.7,6-52.9,9.5-98.2
			c3.6-45.3,7.6-88.7,8.7-97c1.6-9.9,13.5-15.1,39-16.3c20.3-0.8,124.5-4,231.8-7.2l195.2-5.6l9.1,35.4
			c5.2,19.5,13.9,56.5,19.9,82.3c5.6,25.8,18.7,72.4,29,103.8c17.5,52.5,29.8,120.1,41.7,228.6c2.8,24.7,17.5,68.8,33,98.6
			c29,56.1,29.8,62.4,26.2,214.3c-2,76.7,0.8,102.2,19.9,181.3c4.8,19.5,5.6,37,2.4,38.6c-3.2,1.6-63.2,4-133.2,4.8
			s-184.1,4-254.1,7.2c-111.7,5.2-128.8,8-143.5,24.7c-20.7,23.9-21.1,21.1,5.6,87.5c12.3,30.6,25,67.6,28.6,81.5l6,25.8h-66.4
			C1796.4,5557.9,1779.7,5554.7,1775.4,5543.6z"/>
		<path id="US-AR_00000101062941803552107680000005772938731401520773_" class="st1" d="M526.9,4767l-2.8-70.4l-30.6-8.7
			c-35.8-10.3-33.4,11.9-29.8-264.8c1.2-103.8,2-246.5,1.2-318.1l-1.2-129.6L878,3979c227.8,2,416.7,6.4,419.9,9.5
			c3.2,3.2,0.4,25-6.4,48.9c-13.9,49.3-11.1,53.3,44.9,69.2c21.9,6.4,40.2,15.9,40.2,21.1c0,5.6-14.3,34.2-31.4,63.6
			c-17.5,29.8-36.6,74.8-42.9,100.6c-7.2,29.8-24.3,61.6-48.1,89.1c-26.2,30.2-39,54.5-43.3,84.7c-4,27.4-19.1,58.8-42.5,89.9
			c-51.7,68.4-67.2,117.3-65.6,206.8l1.2,75.5H816.7H529.7L526.9,4767z"/>
		<path id="US-CT_00000094578398431077156780000012740232445969128636_" class="st1" d="M4364.2,2466.9c2-6.4-3.2-31-11.9-54.5
			c-8.7-23.5-14.3-51.3-12.7-61.2c1.6-9.9,4-31.8,5.2-47.7l2-29.4l104.2-21.9c57.3-11.9,108.9-22.7,115.3-23.9
			c8.7-1.6,50.1,137.6,50.1,169c0,3.2-24.3,12.3-54.1,20.7c-81.5,22.7-147.1,44.9-157.5,53.3
			C4390.4,2482.8,4359.8,2479.6,4364.2,2466.9z"/>
		<path id="US-DC_00000100370327166460107290000004364191488103649720_" class="st1" d="M3798,3143.6c-8.4-9.9-7.6-15.5,2.4-23.9
			c9.9-8.4,15.5-7.6,23.9,2.4c8.4,9.9,7.6,15.5-2.4,23.9C3811.9,3154.3,3806,3153.5,3798,3143.6z"/>
		<path id="US-DE_00000173871253406934623890000010347425654761839038_" class="st1" d="M4052.9,3131.3
			c-10.3-40.6-24.7-102.2-31.4-137.6c-10.3-54.9-10.3-65.6,1.6-72.8c23.1-14.7,27.8-10.3,27.8,27.4c0,71.6,8.4,89.1,55.7,117.3
			c42.1,25.4,95,93.8,95,122.9c0,8.7-18.7,12.7-64.8,14.3l-64.8,2L4052.9,3131.3z"/>
		<path id="US-FL_00000045607518602246242640000011381998660940061339_" class="st1" d="M3153.5,5342.4c-5.2,0-11.1,0-17.1,0.4
			l-38.6,2.8l-2.8,50.5c-3.2,57.3-3.2,57.3-35,62.8c-17.5,3.2-27.4-1.6-39-18.7c-11.9-18.3-23.1-23.1-50.5-22.3
			c-19.5,0.4-143.9,0.4-276.7-0.4l-241.7-1.2l-6.4-29l-6.4-29.4l-246.1,6.4c-135.6,3.2-254.9,7.6-265.2,9.5c-10.3,2-21.9,4-25.8,4.4
			c-11.5,1.2-8,23.9,11.1,72.4c9.9,25.4,20.7,58.1,23.9,72.4c4,19.1,9.9,25,21.9,21.9c8.7-2.4,59.6-7.2,112.5-10.7l96.2-6.4l54.5,33
			c29.8,17.9,68.8,37.4,87.1,42.9c20.3,6.4,41.7,23.5,55.7,43.7c20.7,30.2,25.4,32.6,56.5,27c18.7-3.2,67.6-23.1,109.3-43.7
			c115.3-57.7,136-63.6,169.8-47.3c15.9,7.6,38.6,28.2,50.9,46.1c12.3,17.9,57.7,64.4,100.6,103.8c90.3,82.3,95.4,93.8,103.8,233.8
			c3.2,58.8,13.9,121.7,27.8,167.8c12.3,40.6,22.7,80.7,22.7,89.5c0,8.7,14.7,28.6,32.6,44.1c21.5,18.3,39.4,47.7,52.5,84.7
			c15.5,43.3,28.6,62.8,56.9,82.3c20.3,14.3,48.1,46.5,62,71.6c14.3,25.4,37,50.5,50.9,56.9c13.9,6,49.3,38.2,78.7,71.6
			c55.3,62.4,128.8,112.1,155.1,104.6c37.4-11.1,95-15.1,95-6.4c0,31.8-103.8,111.3-174.2,133.2c-20.7,6.4-41.7,16.3-46.9,21.5
			c-6.4,6.4-4.8,8,4.8,4.8c8-2.8,35.4-11.5,61.2-20.3c52.5-17.5,128.8-70,149.5-102.6c7.6-11.5,16.3-52.5,19.9-91.1
			c3.6-38.6,12.3-81.9,19.9-96.2c10.3-19.9,13.1-57.7,11.1-156.7c-2.4-124.5-4-133.2-31-186.5c-15.9-30.6-46.5-90.3-68-132.4
			c-21.5-42.1-43.7-97.4-49.3-122.5c-19.9-91.8-41-138.8-90.7-204.8c-77.9-103-184.9-333.2-184.9-398
			C3210.7,5356.7,3190.9,5343.2,3153.5,5342.4z M3423.5,6219.1c3.2,0,6.4,0.8,9.5,1.6c24.3,6,25.4,9.1,23.1,55.7
			c-3.2,54.1-14.3,62.4-54.9,41.7C3354.7,6294.3,3376.1,6217.5,3423.5,6219.1z"/>
		<path id="US-GA_00000119087949553301808730000006323361293312982172_" class="st1" d="M3042.5,5409.6
			c-13.1-21.1-13.9-21.1-288.3-21.1h-275.1l-8.4-30.6c-4.8-16.7-13.1-29.4-19.1-28.2c-6,1.2-10.7,0.8-10.7-1.2s-6.8-39-15.1-82.3
			c-8.4-43.3-13.9-108.5-12.3-144.7c6-143.1,2.8-173-22.7-211.5c-22.7-34.6-37-93.4-49.7-207.6c-2.8-23.5-14.7-76.3-27-117.7
			c-36.2-123.3-53.7-201.2-47.3-211.5c3.2-5.2,15.1-8.7,26.6-8.4c19.5,1.2,142.3-7.6,213.9-15.5c18.3-2,70-6.4,114.9-9.5l81.9-6
			l-8,28.2c-6.8,23.9-4.4,31.4,17.1,51.3c13.9,12.7,34.2,26.2,45.3,29.4c11.1,3.6,44.5,35.8,74.4,72
			c29.4,36.2,75.5,82.7,101.8,103.4c57.3,44.9,146.3,154.7,180.1,222.7c13.5,27,31.8,51.3,40.6,54.1c9.1,2.8,24.3,19.1,33.8,35.8
			c23.9,42.1,62.8,82.3,78.7,82.3c8.7,0,11.5,6,8,16.3c-3.2,9.1-20.3,58.8-38.6,110.5c-23.1,65.6-33,110.9-33.4,148.7
			c0,39.8-3.2,52.9-11.1,47.7c-11.9-7.2-96.2-6-121.7,1.6c-11.9,3.6-13.9,11.9-8.7,40.2c3.6,19.5,3.6,43.7,0,53.7
			C3056.1,5429.9,3055.3,5429.5,3042.5,5409.6z"/>
		<path id="US-IA_00000156567520543504183440000003287691576453074106_" class="st1" d="M1041.4,2949.2c-16.7-16.3-39-18.7-258-23.9
			c-132-3.2-265.6-7.2-296.6-8.7s-82.7-3.2-114.5-3.6l-57.7-0.8l-18.7-40.2c-10.3-21.9-21.5-67.6-24.7-101.4
			c-6-60-12.3-116.1-20.7-176.9c-2.4-17.1-14.3-51.3-27-76.3c-20.3-40.2-23.1-58.8-24.7-162.2c-0.8-64.4-1.2-122.1-0.4-128.4
			c0.8-9.5,95.4-11.5,454.9-9.5l454.1,2.4l7.6,33c4,18.3,9.9,58.4,13.1,89.5c6.4,62.4,30.6,105.4,63.6,113.7
			c11.5,2.8,25.8,16.7,31.8,30.6c6,13.9,20.3,37,31.8,50.9c35.4,43.3,18.7,151.5-27,175.7c-9.1,4.8-34.2,11.5-56.5,15.1
			c-39.4,6.4-40.2,7.2-41,45.7c-3.2,143.5-3.6,145.1-44.9,174.9C1060.1,2967.1,1059.3,2967.1,1041.4,2949.2z"/>
		<path id="US-IL_00000168084160041338759240000007383974111085448882_" class="st1" d="M1479.1,3796.1
			c-4-106.2-10.7-117.7-107.4-187.7c-66.4-48.1-70.8-53.3-66-79.5c2.8-15.5,7.6-50.1,10.7-77.1c6-54.1-3.2-69.6-59.2-102.2
			c-29-16.7-50.1-48.5-50.1-74.8c0-7.2-26.6-41.4-58.8-75.9c-62-66.4-66.8-75.5-75.5-150.7l-5.6-46.9l45.3-34.6l45.3-34.6l1.6-82.7
			c0.8-45.3,2.4-83.5,3.6-85.1c1.2-1.2,13.5-4.4,27.4-6.8c72.4-13.1,110.5-62.8,116.5-151.9c2.8-40.2-0.8-52.9-24.7-86.3
			c-15.5-21.5-27.8-41.4-27.8-43.7c0-2.4,54.1-3.2,120.1-1.6c66,1.6,176.1,3.2,244.9,3.6l124.8,0.8v23.9c0,13.1,6,33.4,13.5,44.5
			c24.7,38.6,30.2,113.3,32.2,449.3c1.2,183.7,4.4,351.9,7.2,373.4c4.4,34.2,0,46.9-37,104.2c-36.6,56.9-42.5,74-47.3,132.4
			c-6.8,80.3-25.4,130-52.5,138.8c-10.7,3.6-24.3,14.3-29.4,24.3c-8,14.7-19.9,18.3-62.8,18.3c-36.2,0-58.4,4.8-70.4,15.5
			C1481.1,3817.9,1479.9,3817.5,1479.1,3796.1z"/>
		<path id="US-IN_00000024684897181329895120000008492614515838551485_" class="st1" d="M1745.9,3582.6c2.8-19.5,21.5-62,42.1-94.6
			l37.4-59.2l-3.6-369c-2-203.2-5.2-376.5-7.2-385.7c-2.8-12.3,2.8-16.3,21.9-16.3c13.9,0,29.8-4.4,35-9.5
			c5.6-5.6,88.3-10.3,206-11.9c168.2-2,196.4,0,198.4,11.9c11.1,75.9,34.2,691.4,26.6,711.3c-2.8,7.6-16.3,13.9-30.2,13.9
			c-32.6,0-36.6,3.6-91.1,75.1c-63.2,83.5-68.4,88.3-102.2,89.5c-16.3,0.4-52.9,14.7-81.5,31.4c-46.1,27-58.8,30.2-117.7,28.6
			c-36.2-0.8-77.9,3.2-92.2,9.1C1745.9,3624.3,1740.8,3621.1,1745.9,3582.6z"/>
		<path id="US-KS_00000138573373038934161590000017196575640553728667_" class="st1" d="M366.2,3800.4c-1.2-0.8-44.1-4.8-96.2-8
			c-51.7-3.6-100.6-8-108.1-9.5s-54.5-6.4-103.8-9.9s-95.8-7.6-103.8-9.1c-8-1.6-56.5-5.6-108.1-9.5c-51.7-3.6-100.2-8-108.1-9.1
			c-8-1.2-54.5-5.6-103.8-9.5s-95.8-8-103.8-9.5c-8-1.6-54.5-5.6-103.8-9.5c-49.3-4-95.8-8-103.8-9.5s-56.5-5.6-108.1-9.5
			c-51.7-3.6-100.2-8-108.1-9.5s-29.4-3.2-47.7-3.6l-33.4-0.8l16.7-120.1c9.1-66,19.1-139.2,22.3-162.6c3.2-23.5,7.6-52.9,9.5-66
			c2.4-13.1,6.4-38.6,8.7-56.5c2.4-18.3,9.1-66.8,14.7-108.1c6-41.4,12.3-90.3,14.7-108.1c2.4-18.3,6.8-49.3,9.5-69.2l5.6-36.2
			l62.4,5.2c60,5.2,205.2,20.7,274.4,29.4c18.3,2.4,60.4,6.8,94.2,9.9c33.8,3.2,72,7.2,84.7,9.1c12.7,2,50.9,6,84.7,9.5
			c33.8,3.6,72,7.6,84.7,9.1c13.1,2,55.3,6.4,94.2,9.9s77.1,7.6,84.7,9.1c7.6,1.6,45.7,5.6,84.7,9.5c39,4,78.7,8.4,88.7,10.3
			s54.5,6,99,9.1c72.8,5.2,83.9,8.4,108.5,32.6c27,26.6,27,27,10.7,52.5c-14.3,21.9-15.1,31-6,62c6,19.9,16.7,36.2,24.3,36.2
			c7.6,0,17.5,7.6,22.7,17.1c16.3,30.2,22.3,288.3,9.5,413.1l-11.9,116.1l-27-2C380.2,3803.2,367,3801.6,366.2,3800.4z"/>
		<path id="US-KY_00000033349066107640435470000008751348801149356963_" class="st1" d="M1509.8,3889.1c1.2-27.4,6.4-55.3,11.1-61.6
			c5.2-7.2,30.6-11.9,64.4-11.9c40.2,0,57.3-4,60.8-13.5c2.8-7.6,19.1-21.9,36.2-31.8c24.3-14.3,33.8-28.6,43.3-66
			c11.5-44.9,14.7-48.1,55.3-61.2c23.9-7.6,74-13.5,111.3-13.1c60.4,0.4,73.6-2.8,116.1-29.4c27.8-17.1,60.4-29.8,77.9-29.8
			c32.6,0,66-29.4,128.4-112.9c17.5-23.5,33-44.1,34.6-46.5c1.6-2.4,21.1-6.4,42.9-9.5l39.8-5.2l2.8-45.3l2.8-45.3l32.6,5.2
			c17.9,2.8,49.3,17.5,69.6,32.2c43.3,31.4,103.4,42.9,208,40.2c62-1.6,73.6,0.8,89.1,17.9c11.9,13.5,17.1,30.6,15.1,52.5
			c-3.2,37.4,17.1,76.3,75.9,146.3l39,46.5l-23.1,15.9c-26.6,18.7-38.2,30.2-127.6,130.4c-58.1,65.2-71.2,75.1-99,75.5
			c-87.9,1.2-658.8,16.3-695.8,18.3c-23.5,1.2-73.2,2.8-110.9,3.2c-55.7,0.8-70,4-75.1,17.5c-8,19.5,1.2,17.5-127.2,25.4l-101.8,6.4
			L1509.8,3889.1z"/>
		<path id="US-LA_00000183929828097953859710000009897379546518961037_" class="st1" d="M1494.3,5867.2
			c-15.5-5.2-48.5-17.9-73.2-27.8c-40.6-16.7-47.7-17.1-75.1-4.8c-34.2,15.1-58.4,21.1-120.1,29.4c-58.1,7.6-115.7-19.5-167-77.9
			c-21.9-25-59.2-55.3-83.1-67.2l-43.3-21.5l-20.7,19.1c-38.6,35.4-120.1,30.2-196-12.3c-31-17.5-168.2-19.5-184.9-2.8
			c-20.7,20.7-19.9,3.2,2.4-63.2c11.9-36.2,24.7-84.7,27.8-108.1c10.3-75.1,15.1-93,33.4-124.5c16.3-28.2,16.7-36.2,6-92.2
			c-6.8-33.8-23.9-86.7-38.2-117.7c-23.9-51.3-26.2-68.8-30.2-190.9l-4-134.4h287.9c223.9,0,287.9,2.8,288.7,11.9
			c2,37.8,10.3,81.1,19.5,104.2c14.7,35.8,0.4,81.1-63.6,202.8c-60,114.5-72.8,176.1-38.6,188.9c11.5,4.4,61.2,8.7,110.5,10.3
			c77.5,2,163,5.2,231.8,8.4c17.9,0.8,20.3,8,25.4,73.6c6,80.7,13.5,91.5,89.1,126.4c37,17.1,40.2,21.5,40.2,54.5
			c0,22.3-6.4,41.4-16.7,50.9c-28.2,25.8-24.7,59.2,7.6,72.8c31.4,13.1,75.1,60,75.1,80.7c0,7.6-8,13.5-17.9,13.5
			c-9.9,0-23.9,1.6-30.6,4C1528.1,5874.8,1509.8,5872.4,1494.3,5867.2z"/>
		<g id="US-MA_00000033362208010824834400000001657295223089075897_">
			<path class="st1" d="M4843.7,2320.9c1.6-9.1,11.5-16.3,21.9-16.3c10.3,0,19.9,7.6,21.9,16.3c2.4,12.3-3.2,16.3-21.9,16.3
				C4846.9,2337.2,4841.3,2333.3,4843.7,2320.9z"/>
			<path class="st1" d="M4947.5,2302.7c-17.1-6.8,4-31.4,27.4-31.4c20.3,0,22.7,9.9,6.4,26.2
				C4969.4,2309.8,4966.6,2310.2,4947.5,2302.7z"/>
			<path class="st1" d="M4735.2,2243c-19.9-31-41.4-56.9-46.9-57.3c-6-0.4-17.9-2-26.2-3.6c-12.3-2.4-202.8,33.4-295.8,55.7
				c-17.9,4.4-19.9,0.4-21.5-49.3c-0.8-29.8-4-65.6-7.2-79.9c-5.2-24.7-3.6-25.8,30.6-26.6c19.9-0.4,46.5-2.4,59.6-4.8
				c13.1-2,67.6-10.7,121.3-19.5c93.4-15.1,99.4-17.1,130.4-52.1c25.4-27.8,39.8-36.2,63.6-36.2c45.3,0,53.7,15.9,37.4,69.6
				c-12.3,41-11.9,46.9,2.8,66.8c9.1,11.9,32.2,31.8,51.7,43.7c19.5,11.9,35.4,24.3,35.4,27c0,11.9,56.1,37,70.4,31.4
				c19.1-7.2,11.9-48.9-11.5-67.2c-13.9-10.7-13.5-11.9,4.8-11.9c11.5,0,28.6,12.3,40.6,29c20.7,29,20.7,29.4,2.8,53.3
				c-9.9,13.5-39,31.4-64.8,40.2c-25.8,8.7-59.2,22.7-74.8,31.4C4789.2,2310.2,4774.5,2304.2,4735.2,2243z"/>
		</g>
		<path id="US-MD_00000018959245012228734810000003576093817502719389_" class="st1" d="M4061.6,3310.6c-8-17.1-16.3-23.1-29-19.5
			c-35,9.1-72.8-58.8-74.8-134.4c-0.4-18.3-3.6-48.9-6.8-68.4c-3.6-22.3-1.6-40.6,6-49.3c6.4-7.6,9.1-20.3,6-28.6
			c-8-20.7-39.4-2.4-58.1,34.2c-20.3,39-9.9,185.7,16.7,238.2l18.7,36.6l-21.9-6.4c-12.3-3.6-33.8-8.7-47.7-11.9
			c-35.4-7.6-73.2-44.9-73.2-72c0-12.3,14.3-39,32.2-59.2l32.2-37l-24.3-25.4l-24.3-25.4l-27.8,23.5c-29.8,25.4-60.4,23.9-77.5-3.2
			c-5.2-8.4-23.5-29-41-46.1c-26.6-26.6-38.2-31.4-75.1-31.4c-62.4,0-123.7,21.1-179.7,61.6c-26.6,19.1-50.9,32.6-53.3,30.2
			c-2.8-2.8-7.2-19.5-9.9-37.4c-5.2-32.6-5.2-32.6,35.8-37.8c22.7-2.8,117.3-18.3,210.7-34.6c174.9-30.6,178.5-31.4,249.7-42.9
			c23.5-4,50.9-8.7,61.2-10.7c10.3-2,31.8-6,47.7-8.7l28.6-4.8l16.3,87.5c9.1,48.1,25,113.7,35.8,146.3l19.1,58.8h74.4h74.4
			l-2.4,41.7c-1.2,23.1-4.4,43.7-6.8,45.7c-2.4,2.4-30.2,6.8-62,9.5C4075.1,3334.8,4072.4,3334.1,4061.6,3310.6z"/>
		<path id="US-ME_00000163071339238966132940000015209753090958283441_" class="st1" d="M4715.3,1833.1
			c-31.8-41.7-101-254.1-124.1-380.9c-2.4-13.1-6.4-30.6-9.1-39.4c-2.8-8.7-0.4-18.3,4.4-21.5c14.7-9.1,50.1-110.1,54.5-155.9
			c2.4-23.5,8.4-65.6,13.1-94.2c4.8-28.6,11.9-76.7,14.7-107.4c3.2-30.6,16.7-89.9,30.2-132l24.7-76.3l64-6.4
			c35.4-3.6,69.2-9.9,75.1-14.7c6.4-4.8,20.7-7.6,32.6-6.8c11.5,0.8,27.4,2.4,35,2.8c7.6,0.8,28.2,13.9,46.1,29.4
			c26.2,23.1,32.2,35,31.8,63.6c-1.2,87.9,66.4,256.9,111.3,277.1c12.7,6,23.1,15.1,23.1,21.1c0,5.6,12.7,25.8,28.2,44.5
			c21.1,25.4,40.2,37,74.8,45.3c58.1,13.9,74,30.2,58.1,59.2c-26.2,48.9-73.2,91.5-114.5,103.8c-31.8,9.5-64,33.4-126.8,93.8
			c-46.5,44.5-103.4,95.4-126.8,113.3s-59.2,52.9-79.9,77.9c-20.7,25-54.1,64.8-74.4,88.3c-19.9,23.5-37.4,44.1-38.6,45.3
			C4741.9,1865.7,4729.6,1851.8,4715.3,1833.1z"/>
		<g id="US-MI_00000157986517387407145500000011396234803830006662_">
			<path class="st1" d="M1951.1,2600.9c0-6,6.4-17.1,14.3-25c8-8,14.3-24.3,14.3-37c0-12.3,9.1-50.5,20.3-84.3
				c16.3-50.1,18.3-66,9.5-85.5c-6-13.1-10.7-42.5-10.7-65.6s-3.6-41.7-8-41.7c-4.4,0-17.9-21.9-30.6-48.5
				c-26.6-56.5-27.8-143.9-2.8-182.1c8.4-12.7,16.7-42.5,19.1-66.4c2.4-23.9,10.3-49.7,17.9-57.3s13.9-23.5,13.9-35.4
				c0-13.5,8.4-25,23.5-32.2c13.1-6,23.5-15.1,23.5-20.3c0-20.7,18.7-8.4,24.7,16.3c8.7,36.2,11.5,39.8,27.4,33.8
				c7.6-2.8,13.9-16.7,14.3-30.2c0-13.5,6-32.2,12.7-41.4c6.8-9.1,10.7-26.6,8.4-39.4c-3.6-18.3,0-23.5,17.9-25.8
				c18.7-2.8,22.3-8.7,23.5-41c3.2-85.1-0.4-78.7,42.1-73.2c24.3,3.2,41,1.2,45.3-5.6c4.4-7.2,19.9,1.6,46.1,26.6
				c21.9,20.7,56.1,41.7,76.7,47.3c64.8,17.5,90.3,54.5,99.8,145.9c9.5,89.1,7.6,105.4-15.5,137.6c-17.5,24.3-23.9,41.4-26.6,67.2
				c-0.4,4-7.2,7.2-14.7,7.2c-9.9,0-14.3,9.9-14.3,31.8c0,17.5,6.4,37,14.3,43.3c16.7,13.9,23.1,9.9,96.2-60l48.9-46.9l31.8,35
				c30.6,33.4,51.3,82.7,60,142.7c2.4,15.5,7.6,39,11.5,51.7c13.1,40.2-12.3,103.8-60,150.3c-23.5,23.1-42.9,47.7-42.9,54.5
				c0,6.8-6.8,23.1-15.1,35.4c-8.4,12.7-15.5,42.1-15.9,65.6l-0.8,42.5l-52.5,0.8c-29,0.4-60.8,2.4-71.2,4.8
				c-17.1,3.6-145.5,4.8-202.4,2c-13.1-0.8-79.5,2-148.3,6C1984.1,2610,1951.1,2608.8,1951.1,2600.9z"/>
			<path class="st1" d="M1735.6,1696.3c-33.4-54.5-47.7-68.4-88.7-87.5c-63.6-29.8-173.4-68-255.3-89.1
				c-56.1-14.3-67.6-21.1-82.3-47.3c-16.7-29.8-16.7-31,1.6-49.3c10.3-10.3,27.4-18.7,38.2-18.7c35,0,116.5-30.6,148.7-55.7
				c77.5-60.4,159.8-106.6,173.8-98.2c4.4,2.8-0.8,11.1-11.9,18.7c-25.8,18.3-48.1,62.4-39,77.1c7.6,11.9,27,17.9,64,19.5
				c11.5,0.4,42.5,19.9,68.8,43.3c54.1,48.1,62,48.5,192.8,12.7c128.8-35.4,238.2-31.8,253.7,7.6c3.2,8.4,12.3,11.9,21.9,8.7
				c27.4-8.7,112.5,36.6,128.8,68.8c19.1,37,18.7,45.7-3.2,52.9c-41.7,13.1-66.8,16.3-161,18.7c-54.5,1.6-110.9,7.6-125.2,13.1
				c-14.7,6-44.5,10.7-66.4,10.7c-33.4,0-43.3,4.8-60.8,28.2c-12.7,17.1-29.4,28.2-42.1,28.2c-19.5,0-91.1,55.3-91.1,70.4
				c0,3.6-5.6,11.9-12.7,19.1C1777.4,1758.7,1768.6,1750,1735.6,1696.3z"/>
		</g>
		<path id="US-MN_00000114791768763813691070000001142986574273516474_" class="st1" d="M215.1,2120.9
			c5.2-130,13.1-270.8,18.7-324.5c4-40.2,0.8-71.2-11.1-111.3c-15.9-52.9-15.9-56.9-0.4-83.5c14.3-24.3,15.5-43.3,10.3-147.9
			c-3.6-66-8-138.8-9.5-162.2c-2-23.5-6.4-140.4-9.9-260.4l-6.4-217.9l64.8,3.6c206.4,11.1,211.5,11.1,225.4-2.4
			c7.6-7.6,13.5-21.9,13.5-31.8c0-20.7,3.6-21.9,28.2-8.7c12.3,6.8,19.5,25,24.3,62.8c8,63.2,23.9,82.7,74.8,91.8
			c20.7,3.6,44.1,12.7,52.5,19.9c9.9,8.7,42.9,13.9,102.2,15.1c84.7,1.6,88.7,2.8,122.1,33c19.1,17.1,41,31.4,48.5,31.4
			c8,0.4,33,13.1,56.5,29c37.4,25,49.3,28.2,103.8,27c62.4-1.6,179.7,11.9,209.9,24.3c15.1,6,14.3,8.7-7.6,29.4
			c-13.5,12.3-33.4,22.7-44.9,22.7c-39,0.4-97.4,34.6-118.9,69.2c-11.5,18.7-33.4,41.4-48.5,50.1c-15.1,9.1-27.4,19.5-27.4,23.9
			s-6,7.6-13.1,7.6c-7.2,0-19.5,9.9-27.4,21.5c-8,11.9-33.4,36.2-57.3,54.1c-49.3,37.4-53.3,44.1-59.6,107.8
			c-2.8,25.8-6.4,55.7-8,66c-1.6,10.3-3.6,21.1-4,23.9s-15.9,13.1-34.2,23.1c-37.8,20.3-60.4,56.9-52.9,85.1
			c8,29,7.2,147.9-1.2,171.8c-5.6,15.9-2,26.2,14.7,42.5c56.5,54.9,190.5,173.4,209.5,185.3c19.9,12.3,42.9,58.1,42.9,84.7
			c0,9.5-90.7,11.1-440.6,8.7l-440.6-3.2L215.1,2120.9z"/>
		<path id="US-MO_00000153701145976364561650000013489099919583711104_" class="st1" d="M1348.3,4077.2c-13.1-6-24.7-11.1-25.8-11.9
			c-1.2-0.8,1.2-21.1,6-44.9c14.3-75.5,35.8-72-446.5-74.8l-423.1-2.4l-1.2-23.5c-6.4-111.7-2.8-188.5,12.3-254.1
			c5.6-24.3,4.8-221.5-1.2-306.2c-2-25.8-3.6-56.5-4-68c-0.4-11.5-15.9-36.2-34.6-54.5c-31.8-31.8-33-35-19.9-55.3
			c26.6-40.6,23.1-66-13.9-98.6c-22.7-19.9-37.4-43.3-44.5-71.2c-5.6-22.7-12.7-47.7-15.9-55.7c-4.8-11.9,4-13.9,54.1-11.5
			c32.6,1.6,184.5,6,337.2,9.1c152.7,3.6,285.1,10.3,293.8,15.1c8.7,4.8,15.5,15.9,15.1,25c-0.8,18.3,9.1,97.4,16.7,134
			c2.8,13.1,30.2,48.9,61.2,79.9c35.8,36.2,59.6,69.2,65.6,91.8c6,22.3,22.3,44.9,43.3,61.2c77.9,60.4,71.2,45.7,57.3,127.2
			c-6.8,40.2-10.3,76.3-7.2,80.7c3.2,4.4,38.2,32.2,78.3,62.4c40.2,30.2,76.7,61.6,81.5,70s11.1,41,14.7,71.6
			c7.2,62.4,10.3,70.8,27,70.8c7.6,0,10.3,13.1,8,40.2c-2.8,30.6-10.3,46.1-33.4,66.8c-23.1,20.7-32.2,39-39.4,79.9
			C1398.8,4087.9,1388.9,4095.5,1348.3,4077.2z"/>
		<path id="US-MS_00000181768165121987000090000014700394659198997401_" class="st1" d="M1458.1,5553.9c-35-29.4-35.8-31.8-39-102.2
			c-1.6-39.8-5.6-75.5-8-79.9c-2.8-4.4-61.2-9.1-130.4-10.7c-69.2-1.6-142.3-4.4-163-5.6c-20.7-1.6-47.3-3.2-58.8-3.6
			c-34.2-1.6-27-46.9,21.9-135.2c23.9-42.9,53.7-106.2,66.4-141.2c21.5-59.2,22.3-65.2,8.4-91.5c-9.9-19.5-16.3-67.6-19.9-153.1
			c-6-147.9,2.8-186.9,60.4-263.2c23.1-30.6,41-66.4,44.5-88.3c7.2-45.7,13.9-58.4,48.5-91.5l27.4-26.2l204-5.6l204-5.6v26.6
			c0,14.7-4,62.8-8.7,107c-4.8,44.1-11.5,111.7-14.7,150.7c-3.2,39-7.6,81.1-9.5,94.2c-9.9,68.8-17.1,326.8-15.5,553.1l1.6,256.5
			l-21.5,0.4c-81.1,2-134.8,11.9-148.3,27.4C1494.7,5583.3,1492.3,5582.5,1458.1,5553.9z"/>
		<path id="US-NC_00000113322364792872860110000013809250423206843317_" class="st1" d="M3720.9,4441.4
			c-17.9-13.1-45.3-30.2-60.8-38.2c-15.5-7.6-70.4-47.7-121.7-88.7l-93.4-74.8l-106.6,4c-90.7,3.2-109.3,1.6-128-12.7
			c-35.4-27.4-54.9-31-159.4-29.4c-104.2,1.2-176.9,16.7-265.6,56.9c-48.5,21.9-58.4,23.9-189.7,33c-46.5,3.2-93,8-103.8,10.3
			c-17.1,4-16.7,2.8,2.8-12.3c11.9-9.1,39.4-35.4,61.2-58.1c21.9-22.7,60.8-51.7,86.7-64.8c25.8-13.1,68.4-42.5,94.2-65.2
			c25.8-22.7,81.1-57.7,122.5-77.5c77.1-37.4,120.1-74,131.6-111.3c9.1-30.2,27.4-37,121.7-44.5c46.1-3.6,92.6-8,103.8-9.5
			s44.9-6,75.1-9.5c30.2-3.6,64-8,75.1-9.9s100.6-14.3,199.2-27.4c98.2-13.1,187.3-25.4,197.6-27.4c10.3-2,38.2-6.4,62-9.9
			c66.8-9.5,194.8-33.4,259.2-48.1c15.5-3.6,22.7,2,32.2,24.3c11.1,27,10.3,30.6-13.5,50.9l-25.4,21.9l46.5,6.4
			c34.6,4.8,52.9,13.5,71.2,33.8c31.8,35.8,31,47.7-8.7,90.7c-18.3,19.9-35.4,43.3-38.2,52.5c-4.8,14.3-45.7,22.7-89.5,18.3
			c-2.8-0.4-5.2,18.3-4.8,41.4l0.8,41.7h35.4c41,0,43.7,8.7,14.3,43.7c-42.1,49.7-57.7,60-90.7,60c-29,0-42.1,9.5-106.6,76.7
			c-64.4,66.8-73.6,80.7-73.6,110.9c0,31-3.6,35.8-37.8,50.5c-20.7,9.1-39,16.3-40.6,16.3C3754.3,4466,3738.8,4454.5,3720.9,4441.4z
			"/>
		<path id="US-ND_00000103237976706204402380000006695239171558711992_" class="st1" d="M140.8,1559.9c-1.2-1.2-27.8-4.8-58.8-8.4
			c-31-3.2-67.2-8-79.9-10.3c-13.1-2.4-42.5-6.4-66-9.5c-23.5-2.8-57.3-7.2-75.1-9.5c-52.9-6.8-95.4-12.3-150.7-18.7
			c-28.6-3.6-62.4-8-75.5-9.9c-13.1-2-108.5-14.3-211.9-27.4c-103.4-13.1-200.8-25.8-216.3-28.2c-39.8-6.4-85.1-11.9-151.5-19.5
			l-57.3-6.4l25.8-151.9c14.3-83.5,28.2-165.8,31.4-182.5c3.2-16.7,7.6-42.1,9.9-56.5c2.4-14.3,15.1-89.9,28.2-168.6
			c13.1-78.3,23.9-145.5,23.9-149.5c0-6,121.7,0.4,167,8.7c9.1,1.6,46.1,6,82.3,9.5c36.2,3.6,76.3,8,89.5,9.5
			c13.1,2,48.9,6,79.9,9.1c31,3.2,71.2,8,89.5,9.9c58.8,7.2,276.3,32.6,324.8,37.8c25.8,2.8,62,6.8,79.9,8.7
			c18.3,2,56.5,6.8,84.7,9.9c28.6,3.2,54.1,9.9,57.3,14.7c2.8,4.8,6.4,77.5,8,161.4c1.2,83.9,4,167.8,5.6,185.7
			c2.8,28.6,14.3,261.2,17.9,357.8c1.2,31-0.8,33-29.4,33.8C157.1,1561.9,142,1561.1,140.8,1559.9z"/>
		<path id="US-NE_00000107577543658422024140000007413224612454018491_" class="st1" d="M232.2,3042.2
			c-36.2-3.6-91.5-9.1-122.5-12.3S-3.9,3018-73.9,3010.4c-70-7.6-148.3-16.3-174.2-18.7c-25.8-2.8-62-6.8-79.9-8.7
			c-42.1-5.2-93-10.7-216.7-23.9c-54.5-5.6-109.3-11.9-122.5-13.9c-20.3-3.2-155.9-16.7-183.7-18.7c-13.1-0.8-9.1-78.3,9.9-198
			c7.6-48.1,21.9-43.7-297.4-95.4c-13.1-2-34.2-6-47.7-8.7l-23.9-4.8l37.4-223.5c20.7-122.9,38.6-225,40.2-227
			c2-2.8,220.3,23.1,347.1,41.4c15.5,2.4,83.5,10.7,150.7,19.1c67.2,8.4,133.2,16.7,145.9,18.7c13.1,2,46.5,6.4,74.4,9.5
			c27.8,3.2,57.7,7.6,66,9.1c8.4,1.6,42.5,5.6,76.3,9.1c92.6,9.5,125.2,20.7,155.9,52.9c27,28.6,29.4,29,91.8,23.9
			c54.1-4.8,70.4-2.4,103.8,14.7c21.9,11.1,50.1,23.1,63.2,26.6c19.9,5.2,23.9,12.3,24.7,43.7c0.4,20.7,11.9,59.2,25,85.5
			c13.5,27,27,74.4,30.6,107.8c3.6,33,8,66,9.1,74c1.6,8,6,43.7,9.5,79.9c4.4,41,15.9,83.5,31.4,112.9
			c18.3,35.4,56.5,136.4,58.1,152.3C331.2,3051.7,330.5,3051.7,232.2,3042.2z"/>
		<path id="US-NH_00000083062235001949621220000004403790258606555800_" class="st1" d="M4486.7,2029.1c-11.5-2-21.5-6.8-21.9-10.3
			c-0.4-3.6-2.8-81.9-5.6-174.2l-4.8-167.4l33.8-37.4c24.3-26.6,32.6-43.3,29-58.4c-23.1-101.4-23.1-103.8-3.6-131.2
			c29-40.6,40.2-35.8,49.3,20.7c6.4,38.6,31.4,130.8,68.8,250.5c24.3,78.3,63.6,148.3,94.2,167c6.8,4,12.3,18.3,12.3,31.8
			c0,18.3-3.6,22.7-15.1,18.3c-9.9-4-29.4,8.4-57.7,36.2c-34.2,33.8-51.3,43.3-86.3,48.1c-23.9,3.2-50.1,7.2-57.7,8.4
			C4514.1,2032.3,4498.2,2031.5,4486.7,2029.1z"/>
		<path id="US-NJ_00000072267622735769768280000001287772188014408872_" class="st1" d="M4147.1,3051.7
			c-51.7-25.4-68.4-51.3-66.8-103.4c0.8-22.7-0.4-46.1-2.4-52.1c-2-6,18.7-34.2,46.1-62.8c27-28.6,49.3-56.5,49.3-61.6
			s-17.1-23.1-37.8-39.4c-46.9-37-61.6-62-46.9-79.5c10.7-13.1,13.5-24.7,23.1-98.6c2.8-23.1,8.7-45.3,13.1-49.3
			c11.5-11.5,145.5,36.6,163.8,58.8c11.5,13.9,13.9,25.4,8,40.6c-9.5,24.7-0.4,80.3,21.5,131.2c8.4,19.5,13.1,47.3,11.1,61.2
			c-2.4,13.9-6,38.2-8.4,53.7c-6.4,47.3-77.9,188.9-103.8,205.6C4187.7,3075.2,4195.6,3075.6,4147.1,3051.7z"/>
		<path id="US-NY_00000034062907464869686980000007057556927704670613_" class="st1" d="M4330.4,2635.1c-2-6-2-23.9,0.4-39.8
			c7.2-46.5-25.4-72.8-131.6-107.4c-95-31-105-37.8-184.5-130.8l-35.4-41l-159.4,24.7c-87.9,13.5-170.2,26.6-183.3,28.6
			c-13.1,2.4-108.1,17.1-211.9,33c-103.8,15.9-195.2,31.4-203.6,33.8c-9.9,3.2-17.1-2.4-20.7-15.9c-5.2-20.3,21.5-58.1,104.2-145.9
			c16.7-17.9,30.6-36.6,30.6-41.7c0-5.2-10.7-30.2-23.5-56.1c-27.8-54.9-29-66-7.2-66.4c9.1,0,24.3-6,33.4-13.1
			c12.3-9.1,53.7-13.1,148.7-14.3c143.1-1.6,159-4.8,204.8-42.9c48.1-40.6,60-79.1,44.5-145.1l-12.7-54.9l55.3-63.6
			c30.2-35,64.4-76.7,75.5-93c11.1-16.3,42.9-47.3,70.4-69.2l50.1-40.2l78.3,1.6c42.9,0.8,87.5-1.2,98.6-5.2
			c17.1-5.6,21.9-2,30.2,24.3c15.1,47.7,21.1,91.1,23.5,163.8c1.6,56.5,5.6,71.2,26.2,95.8c47.7,56.9,88.7,267.2,81.1,418.7
			c-3.2,66.8-0.8,109.7,8,139.2c7.2,23.5,12.7,54.1,12.7,68.4c0,14.3,4.4,25.8,9.1,25.8c6,0,6,8.4,0.4,23.1
			c-5.6,14.7-5.6,25.4,0.4,28.6c5.2,3.2,9.1,2,9.1-2.8c0-11.9,45.3-31.8,84.7-37c18.3-2.4,45.7-13.9,61.2-25.4
			c41.4-31,91.1-46.5,100.2-31.4c4.8,7.6-2,20.3-18.3,34.6c-13.9,12.3-40.6,37-58.8,54.1C4482.7,2587.3,4336.8,2652.1,4330.4,2635.1
			z"/>
		<path id="US-OH_00000030447650528730237610000007999178223815429562_" class="st1" d="M2747.1,3368.6
			c-17.5-21.1-22.7-21.9-94.6-17.1c-95.4,6.4-169.8-8.4-204-41c-17.1-16.3-39.4-25.8-68.4-29c-42.1-4.8-42.9-5.6-43.7-39
			c-0.4-18.7-2.4-68-4.4-109.3c-2-41.4-6-126.8-8.7-190.1c-2.8-63.2-7.6-157.5-10.7-209.5c-4.4-75.9-3.2-95,7.2-95.8
			c7.2-0.4,23.5-2,36.2-3.2c13.1-1.2,66-5.6,117.7-9.5c51.7-4,96.2-7.2,99-7.6c2.8-0.4,29.8,11.1,60.4,25.8
			c59.6,28.2,110.9,32.6,136.4,11.1c8.4-7.2,34.6-19.9,58.4-28.6c23.9-8.7,51.3-23.5,61.2-32.2c61.2-55.3,153.9-114.5,155.5-99
			c15.9,148.3,14.3,365.4-4.4,510.9c-0.8,8-9.9,36.6-20.3,64.4c-14.7,41-25.8,54.9-58.4,74c-46.1,27-72.8,60.4-81.9,103.4
			c-5.2,23.1-12.7,31.4-34.2,36.2c-20.3,4.4-29,12.7-32.6,31.4c-6.8,33-25.4,70-37.4,73.6C2769.8,3389.7,2757.5,3381,2747.1,3368.6z
			"/>
		<path id="US-OK_00000086663471844288158180000005550692098287810708_" class="st1" d="M354.3,4615.1c-40.6-22.3-79.1-36.2-99-36.2
			c-17.9,0-100.2,2.4-182.9,5.2c-127.2,4.4-157.1,2.8-193.2-10.7c-23.5-8.7-57.3-18.3-75.1-21.1c-19.9-3.2-49.3-19.5-74-41
			c-30.6-27-51.7-37.4-84.7-41.4c-88.3-10.3-128.4-23.9-153.9-51.7c-14.7-16.3-46.9-34.2-78.7-44.1l-53.3-16.7l5.2-47.3
			c2.8-26.2,7.6-77.1,10.7-113.3c2.8-36.2,7.2-80.7,9.5-99c2.4-18.3,6.4-66.8,9.5-108.1c3.2-41.4,7.6-86.7,10.3-100.2
			c5.6-28.6-0.8-34.2-44.5-40.6c-51.3-7.6-316.5-42.1-408.3-53.3c-118.1-14.3-111.7-10.7-105-61.6c3.2-24.3,7.2-44.9,8.3-46.1
			c1.2-1.2,32.2,3.2,68.4,9.9c36.2,6.8,99.8,15.1,141.2,18.7c41.4,3.6,94.2,8,117.7,9.9c23.5,2.4,70,6.4,103.8,9.1
			c33.8,2.8,80.3,7.2,103.8,9.5c23.5,2.4,70,6.4,103.8,9.5c33.8,2.8,80.3,7.2,103.8,9.5c23.5,2.4,74.4,6.4,112.9,9.5
			c38.6,3.2,85.5,7.2,103.8,9.1s64.8,6.4,103.8,9.5s85.5,7.2,103.8,9.5c18.3,2,68.8,6.4,112.9,9.5c44.1,3.2,90.7,7.6,103.8,9.1
			c13.1,2,59.6,6.4,103.8,9.5c44.1,3.6,80.7,7.2,81.1,7.6c4.8,5.6,13.9,279.5,12.7,382.9c-2.8,250.5-7.2,424.6-10.3,427.4
			C422.3,4649.7,390.9,4635,354.3,4615.1z"/>
		<path id="US-PA_00000024683856085654786530000000535424394133306525_" class="st1" d="M3139.2,3018.3
			c-4.8-9.5-14.3-48.9-21.5-87.9c-13.9-79.1-14.7-83.9-18.3-87.1c-4.4-4.4-6.8-37.8-13.5-171.8c-3.6-72.4-8-146.7-9.5-165.4
			c-2.4-27.4,1.6-36.2,21.9-48.9c13.5-8.7,34.2-22.7,46.1-31.4c20.7-15.1,21.5-14.7,27.4,14.7l6,30.2l51.3-6.4
			c28.2-3.6,60.4-8,71.6-9.9c11.1-2,47.7-8,81.5-13.1c33.8-5.2,78.3-12.3,99-15.5c20.7-3.2,138.4-21.9,261.6-41l223.9-35l32.6,36.2
			c17.9,19.9,32.6,40.2,32.6,44.9c0,5.2,14.7,19.1,33,31.4c18.3,12.3,31,24.3,28.6,26.6c-4.8,4.8-11.9,41.7-20.7,105
			c-3.2,24.7-9.5,47.3-14.3,50.1c-21.9,13.5-6.8,55.7,33.8,92.6l42.1,38.6l-56.5,57.7c-31,31.8-68,62-82.3,67.6
			c-13.9,5.6-80.7,19.1-147.9,30.2c-67.2,11.1-130.8,21.9-141.2,23.9c-10.3,1.6-95,16.3-188.5,32.2
			c-220.3,37.8-204.8,35.8-293.8,42.5C3157.1,3034.7,3147.1,3033.5,3139.2,3018.3z"/>
		<path id="US-RI_00000183215275735673386140000003181773374902576542_" class="st1" d="M4632.2,2320.9c-9.1-35-19.1-73.2-21.9-84.7
			c-5.2-19.5-2.4-21.1,32.2-21.1c35,0,39.8,3.2,68.8,48.1c23.5,37,28.6,51.7,21.5,63.6c-9.5,15.5-66.4,57.7-77.9,57.7
			C4651.3,2384.2,4640.9,2355.9,4632.2,2320.9z"/>
		<path id="US-SC_00000028319505306235620290000004296206821523013813_" class="st1" d="M3268.4,4959.5
			c-13.1-6.8-34.2-31.8-46.5-55.3c-12.3-23.5-25.4-42.9-28.6-42.9c-13.1,0-55.3-50.9-55.3-66.8c0-9.1-15.9-36.2-35.4-59.6
			c-19.5-23.5-48.1-58.8-63.2-78.7c-15.5-19.9-51.3-54.9-79.9-77.5c-28.6-22.7-73.2-68.4-99-101.4c-25.8-33-62-68-80.7-77.5
			c-43.7-22.7-56.5-38.6-49.7-64c6-23.1,51.3-46.1,159.4-81.5c113.7-37.4,314.5-27.8,314.5,15.1c0,6.4,39.8,9.1,116.5,7.2
			c91.5-2,120.5,0.4,134,11.1c9.5,7.6,23.9,18.7,31.8,25c8,6,39.8,32.2,70.8,57.7c31,25.4,75.5,56.1,99,67.6
			c23.5,11.5,44.1,22.7,46.1,24.7c2,2-13.1,23.5-33.8,48.1c-46.1,54.9-55.3,72-63.6,120.1c-4.4,25.8-17.5,48.1-41.4,70.8
			c-19.1,18.3-51.7,53.3-72.4,77.9c-20.7,24.7-74,77.9-118.1,118.9C3295.4,4968.6,3291.1,4971.4,3268.4,4959.5z"/>
		<path id="US-SD_00000162335340026114452060000008694833044526739336_" class="st1" d="M92.3,2340.8c-39-20.3-55.3-23.5-103.8-19.9
			c-54.1,4-60,2.4-96.2-27c-39.4-31.4-70-39.8-210.7-55.7c-28.6-3.2-58.1-7.6-66-9.1c-8-1.6-39.4-6-70.8-9.5
			c-31-3.2-67.2-7.6-79.9-9.1c-12.7-1.6-42.5-5.6-66-8.7c-23.5-2.8-59.2-7.6-79.9-9.9c-20.7-2.8-84.3-11.1-141.2-18.7
			s-128.8-16.7-160.2-20.3c-130-14.7-141.5-17.9-139.6-37.4c2-19.1,55.7-339.2,64-380.5c2.4-12.7,6.8-38.2,9.5-56.5
			c2.8-18.3,12.7-77.9,21.9-132.4c15.9-94.6,17.9-99,39.8-98.2c25,0.8,141.5,13.1,167.4,17.5c23.5,4,93.8,13.5,147.9,19.5
			c25.8,2.8,57.7,7.2,70.8,9.1c13.1,2.4,48.9,6.4,79.9,9.5c31,3.2,62.8,7.2,70.8,9.1c8,2,69.2,10.3,136.4,18.7
			c124.5,15.1,372.2,47.7,423.9,55.3c15.5,2.4,40.2,4.8,54.5,5.2c22.7,0.8,25,3.2,16.7,18.7c-7.2,13.1-4.8,33.8,9.5,77.5
			c12.7,39.4,17.5,72.8,13.9,97.4c-8.4,60.8-13.9,142.3-18.7,272.4c-2.4,66.8-8.4,124.1-13.5,127.2c-5.2,3.2-8.4,44.9-7.2,92.6
			C167,2378.6,166.2,2379.4,92.3,2340.8z"/>
		<path id="US-TN_00000062870639223513199410000003584167131264222102_" class="st1" d="M1329.6,4321.3c0-26.6,20.3-81.1,44.9-120.1
			c34.2-54.1,58.1-114.9,64.4-163.4c6-44.5,22.7-65.6,52.9-67.6c11.5-0.8,74.4-4.4,138.8-8c98.2-5.6,120.1-9.5,132-24.3
			c12.7-15.9,35.4-17.9,249.7-23.1c626.2-15.1,767.4-19.9,892.2-29.8c35-2.8,63.6-2.4,63.6,1.2c0,12.7-22.3,47.3-41.4,63.6
			c-10.7,9.1-50.5,31.4-88.3,49.3c-37.8,17.9-92.6,53.3-122.5,79.1c-29.8,25.8-73.2,55.3-97,65.2c-23.5,9.9-55.3,33.8-70.8,52.5
			c-15.5,18.7-48.9,47.7-74.8,64.4c-25.8,16.7-49.3,33-51.7,36.6c-9.9,13.1-115.7,17.5-555.5,23.1c-251.3,3.2-474.7,7.2-496.6,9.1
			C1342.4,4331.7,1329.6,4329.3,1329.6,4321.3z"/>
		<path id="US-TX_00000004514037244215208150000001240296328764821183_" class="st1" d="M-336.3,6602.8
			c-42.9-31.4-58.1-37.4-96.6-37.4c-36.2,0-56.1-6.8-95-32.2c-27-17.5-66.4-37.8-87.1-44.5c-20.7-6.8-42.9-19.9-49.7-28.6
			c-6.8-8.7-17.9-21.9-25-29.4c-12.3-12.3-31.4-84.7-23.1-87.9c2-0.8-7.6-11.9-21.5-24.7c-22.3-20.7-25.8-33-31.4-102.2
			c-5.6-70-10.7-86.3-45.3-144.7c-62-104.6-126.4-237.4-133.6-275.1c-9.5-50.5-57.3-140.4-91.1-170.2c-15.9-14.3-37-41.4-46.9-60.8
			c-14.3-28.2-24.7-36.2-53.3-41c-19.5-3.2-58.8-11.1-87.1-17.5c-78.3-17.1-138.4-2-161.4,41.4c-9.5,17.9-17.5,37.8-17.5,44.1
			c0,6.4-14.3,26.2-31.8,44.9c-24.7,26.2-39,33.4-63.6,33c-44.9-0.8-54.9-6.4-126-70c-95.4-85.1-143.5-151.9-146.7-203.2
			c-1.2-23.1-10.3-62-19.9-87.1c-9.5-24.7-17.1-57.7-17.1-72.8c0-28.2-25-62-108.5-145.9c-21.1-21.1-45.3-53.7-54.5-73.2
			c-9.1-19.1-24.3-39-34.2-44.1c-9.5-5.2-22.3-23.1-28.2-39.8s-21.1-41.7-34.2-54.9c-15.5-15.9-22.3-32.6-19.9-47.3
			c3.2-21.5,7.6-22.7,61.6-23.1c31.8,0,101.4,7.2,154.3,16.3c103,17.5,137.2,23.5,192.8,31.8c19.5,3.2,52.1,9.1,73.2,13.5
			c20.7,4.4,58.8,11.1,84.7,14.3c25.8,3.2,49.7,7.6,52.5,9.5c13.5,8,121.7,14.7,121.7,7.6c0-4.4,6.4-44.1,14.3-88.3
			c8-44.1,15.9-92.6,18.3-108.1c2-15.5,23.5-146.7,47.3-291.8c23.9-145.1,45.7-277.9,48.5-295.4c2.8-17.5,6.8-40.6,8.7-51.3
			c2-10.7,6-35,8.7-53.3c2.8-18.7,7.2-44.1,9.5-56.5c2.4-12.7,7.2-39.8,10.3-60.8c3.2-21.1,7.2-44.5,8.7-52.1
			c1.6-8,3.2-18.7,3.6-24.3c0.4-7.2,24.3-6.8,81.1,1.6c44.1,6.4,106.6,14.7,138.8,17.9c32.2,3.2,64.8,7.6,72.8,9.5s37.4,6.4,66,9.5
			c28.6,3.2,77.1,9.9,108.1,14.7c31,4.8,60,8.7,64.8,8.7c4.4,0,5.6,33,2,73.2c-12.7,154.3-34.2,384.5-37.8,400
			c-4.8,21.1,7.6,29.8,70,49.7c31.4,9.9,60,26.6,72.8,42.5c21.9,27,75.9,45.7,151.9,52.5c44.9,4,93.8,30.2,112.1,60
			c7.2,11.9,21.9,19.5,37.8,19.5c14.3,0,48.9,8.7,77.5,19.5c47.3,17.9,68,19.5,244.9,16.7c211.5-3.2,206-4.4,299.8,60
			c22.3,15.5,55.3,31.8,73.2,37l32.2,8.7v205.6v205.6l27.4,60.4c15.1,33,32.6,85.9,38.6,117.7c10.3,51.7,9.5,60.8-7.6,94.2
			c-10.3,20.3-21.9,64.4-25.4,97.8c-3.6,33.8-14.3,82.3-23.9,108.1c-9.5,25.8-19.9,60.8-23.5,77.5c-4.8,23.9-11.1,30.6-27.8,30.6
			c-37,0-87.5,26.6-123.3,65.2c-36.2,39.4-133.2,98.2-249.3,151.5c-63.2,29-118.9,60.8-132,74.8c-2.8,2.8-25.8,21.9-51.7,42.1
			c-59.2,46.5-88.3,78.7-143.1,158.2c-42.1,61.2-43.3,65.6-41.7,127.2c1.2,35,6,76.3,10.7,92.2c9.9,31.8,19.1,181.7,11.9,200
			C-266.8,6647.7-281.9,6642.6-336.3,6602.8z"/>
		<g id="US-VA_00000093137555108395360520000003761427172125883571_">
			<path class="st1" d="M2760.6,3793.7c76.3-91.1,124.1-131.2,145.5-122.9c8,3.2,14.7,9.1,14.7,13.1s14.7,9.9,32.6,13.5
				c24.7,4.8,59.2-2.8,137.6-28.6c94.6-31.4,106.2-37.8,116.9-64c6.8-15.9,20.3-39.8,30.2-52.5c9.9-13.1,32.2-59.6,49.3-103.8
				c17.1-44.1,33.8-82.7,37-86.3s22.7-8.7,43.3-11.9c63.6-9.5,68-12.7,74.8-54.9c5.2-32.2,15.5-47.7,57.7-85.1
				c28.2-25,50.9-48.5,50.1-52.1c-3.6-24.7,2.4-29,25.4-20.3c38.2,14.7,68.4,11.1,79.1-9.5c9.9-18.7,9.9-18.7,28.6,0
				c10.3,10.3,22.3,18.7,27,18.7c4.4,0,23.9,6.4,42.5,14.3c33.8,14.3,34.2,14.7,18.7,38.2c-14.3,22.3-14.3,26.2,1.2,60.8
				c13.5,30.2,27.8,42.5,74.4,65.2c31.8,15.1,69.2,30.6,83.5,34.2c29.4,7.2,48.5,33.8,34.6,48.1c-5.6,5.6,1.2,21.1,19.1,41.4
				c21.9,25.8,27.8,41.7,28.2,76.3c0.4,37,5.2,48.1,29.8,70.8c60,54.5,64.8,60,64.8,78.3c0,10.3-5.2,19.1-11.9,19.5
				c-17.5,1.2-50.9,7.2-124.8,23.1c-65.6,13.9-330.4,54.5-428.6,65.6c-28.6,3.2-58.1,7.6-66,9.5s-38.2,6-67.2,9.1
				c-29,3.2-60.8,7.2-70.8,9.1c-31,6-99.4,13.9-206,24.3c-56.9,5.6-120.5,11.9-141.2,13.9c-20.7,2.4-88.7,6.4-150.7,9.5
				c-62,3.2-120.9,8-130.4,10.7C2700.6,3871.6,2722.1,3839.8,2760.6,3793.7z"/>
			<path class="st1" d="M4065.2,3571c-8-13.1,4.4-91.5,21.1-134.4c7.6-19.5,11.9-43.3,9.1-53.3c-4.8-19.1,14.3-28.6,57.7-28.6
				c17.5,0,20.7,3.2,15.1,16.3c-4,9.1-13.9,35.4-22.3,58.4c-8.4,23.1-22.7,49.7-31.8,58.8c-19.1,19.5-21.1,32.6-5.6,37.8
				c7.6,2.4,5.6,11.5-6,29C4085.5,3581.8,4074.7,3586.5,4065.2,3571z"/>
		</g>
		<path id="US-VT_00000116931214866614395580000007598877090957433261_" class="st1" d="M4324,2033.9c0-38.6-46.1-179.3-65.6-200
			c-13.9-14.7-19.5-37-22.7-89.9c-2.4-38.6-6.8-81.1-9.9-93.8c-3.2-13.1-8.4-39-11.5-57.7l-5.6-33.8l88.3-20.3
			c48.5-11.1,107.8-22.7,131.6-25.8l43.3-6l6.8,43.7c6,40.2,4,46.5-23.1,77.5l-29.4,33.4l2.8,192c2.4,165.4,1.2,192-11.1,192.4
			c-8,0.4-32.2,2.8-54.1,5.6C4326.8,2056.1,4324,2054.9,4324,2033.9z"/>
		<path id="US-WI_00000062880078131410116670000006271888384640816557_" class="st1" d="M1361.9,2441
			c-188.1-6.4-192.4-8.7-206.4-127.2c-13.9-120.9-51.7-232.2-83.9-247.7c-11.1-5.2-62-48.1-113.3-95l-93-85.5l0.4-115.3
			c0.4-99.8,2.4-116.5,16.7-124.8c54.9-32.2,70.4-53.7,71.6-97.8c1.6-70,10.7-98.6,31.8-101.4c33.8-4.8,178.5-51.3,187.7-60.4
			c15.5-15.5,22.7-9.9,19.9,15.1c-2,18.7,2.8,26.2,21.5,33.4c29.8,11.5,63.2,44.1,71.6,70.8c4.8,15.9,25,25.4,97.8,45.7
			c111.3,31.4,244.5,78.7,271.6,96.2c29.8,19.1,85.1,114.9,92.6,160.6c3.6,21.9,11.9,40.2,18.3,40.2c18.3,0,53.7-37.4,68-72
			c16.3-39,37-43.3,26.6-5.6c-4,14.3-6.4,35.4-6,46.9c0.8,11.5-2.8,21.1-7.6,21.1c-19.5,0-37.4,31.4-47.3,82.3
			c-13.5,70.8-28.2,125.2-39.8,147.1c-25.4,48.1-33.8,172.2-21.1,310.1l6.8,73.6l-121.3-3.2C1558.3,2447,1439.8,2443.4,1361.9,2441z
			"/>
		<path id="US-WV_00000150063574072769773620000010811007641598459270_" class="st1" d="M2959.8,3663.7
			c-60.4-22.3-168.2-142.3-174.9-194.4c-2.8-20.7,4-38.6,23.5-64.8c15.1-19.9,27.4-45.7,27.4-57.7c0-15.5,9.1-25.4,32.2-35
			c25-10.3,33-20.3,38.2-46.5c7.6-40.2,35.4-74.4,83.9-102.2c46.5-26.6,81.5-107.4,81.5-187.3c0-72.8,15.1-77.1,23.1-6.8
			c9.5,85.9,23.5,95.4,130.4,91.8l85.9-3.2l10.3,46.9c9.1,42.1,12.7,46.9,33.4,44.5c12.7-1.2,46.9-19.1,75.9-39.4
			c63.2-44.1,152.7-67.2,191.6-49.7c27.4,12.7,29.4,19.5,11.1,44.1c-12.3,17.1-13.9,17.1-53.3-3.6c-44.9-23.5-52.9-19.9-60.8,25.8
			c-5.2,30.6-45.3,74-80.7,87.9c-10.3,4-18.3,21.9-22.7,50.1c-7.2,47.3-9.1,48.9-69.2,54.9c-22.3,2.4-41.4,5.6-42.9,7.6
			c-1.2,2-18.7,43.7-38.2,93c-19.5,49.3-48.1,108.1-63.2,131.2c-15.1,23.1-27.4,44.5-27.4,48.1c0,6-52.9,26.6-150.7,58.4
			C2996.4,3667.2,2974.6,3669.2,2959.8,3663.7z"/>
	</g>
</g>
</svg>
