<?xml version="1.0" encoding="utf-8"?>
<!-- Generator: Adobe Illustrator 28.0.0, SVG Export Plug-In . SVG Version: 6.00 Build 0)  -->
<svg version="1.1" id="Layer_1" xmlns="http://www.w3.org/2000/svg" xmlns:xlink="http://www.w3.org/1999/xlink" x="0px" y="0px"
	 viewBox="0 0 62 76" style="enable-background:new 0 0 62 76;" xml:space="preserve">
<style type="text/css">
	.st0{fill:#B6407F;}
	.st1{fill:#FFFFFF;}
</style>
<g>
	<path class="st0" d="M31,73.8L10.2,53c-11.5-11.5-11.5-30.1,0-41.6l0,0C21.7,0,40.3,0,51.8,11.4l0,0c11.5,11.5,11.5,30.1,0,41.6
		L31,73.8z"/>
	<path class="st1" d="M19.5,43.7L19.5,43.7c-6.3-6.3-6.3-16.6,0-22.9l0,0c6.3-6.3,16.6-6.3,22.9,0l0,0c6.3,6.3,6.3,16.6,0,22.9l0,0
		C36.1,50,25.9,50,19.5,43.7z"/>
</g>
</svg>
