<svg xmlns="http://www.w3.org/2000/svg" width="132" height="39" viewBox="0 0 132 39" fill="none"><g clip-path="url(#clip0_4242_3906)"><path d="M4.61412 4.14648L0 26.1767H62.1565L66.7706 4.14648H4.61412Z" fill="#9D0054"></path><path d="M102.267 6.25405L103.571 0H65.2024L58.9141 30.054H90.9887L89.2233 38.1131H119.954L126.729 6.25405H102.267Z" fill="#092B4D"></path><path d="M77.9457 11.6844C77.4041 11.1481 76.7777 10.7416 76.0548 10.4606C75.3373 10.1796 74.5758 10.0391 73.7724 10.0391C72.584 10.0391 71.4857 10.275 70.4872 10.7362C69.4897 11.2028 68.6317 11.8549 67.9152 12.7022C67.1977 13.5495 66.641 14.5631 66.2399 15.7461C65.8388 16.9302 65.6382 18.2441 65.6382 19.6824C65.6382 20.7356 65.8034 21.6687 66.1401 22.4807C66.4758 23.2926 66.9274 23.9747 67.5044 24.5314C68.0761 25.0827 68.7529 25.5042 69.5251 25.7906C70.2973 26.0769 71.12 26.2164 71.9877 26.2164C72.8554 26.2164 73.7274 26.1059 74.4857 25.8849C75.2429 25.6694 75.91 25.368 76.486 24.9872C77.063 24.6065 77.5392 24.1549 77.9157 23.6337C78.2922 23.1124 78.5624 22.5557 78.7276 21.954H76.0752C75.7491 22.5611 75.2676 23.047 74.6412 23.4031C74.0137 23.7591 73.1814 23.9393 72.1486 23.9393C71.6777 23.9393 71.2058 23.8589 70.7446 23.6991C70.2834 23.5382 69.8619 23.2776 69.4908 22.9215C69.1143 22.5654 68.814 22.1042 68.5834 21.5368C68.3528 20.9705 68.237 20.2884 68.237 19.4861C68.237 19.351 68.237 19.2201 68.2423 19.0946C68.2477 18.9691 68.252 18.8393 68.2627 18.7031H79.5256C79.5503 18.5626 79.576 18.3824 79.5953 18.1765C79.6103 17.9706 79.6307 17.755 79.6511 17.5394C79.6715 17.3238 79.6865 17.1136 79.6961 16.9023C79.7058 16.6964 79.7111 16.5162 79.7111 16.3607C79.7111 15.3428 79.5503 14.4505 79.2349 13.6632C78.9185 12.876 78.4874 12.2185 77.9457 11.6822V11.6844ZM77.0984 16.424C77.093 16.5591 77.0887 16.6449 77.078 16.6942L68.5931 16.6889C68.7733 16.0218 69.0189 15.4147 69.3299 14.8688C69.641 14.3218 70.0067 13.8552 70.4336 13.4648C70.8551 13.0733 71.3313 12.7676 71.8525 12.5574C72.3738 12.3418 72.9305 12.2367 73.5322 12.2367C74.1339 12.2367 74.6358 12.3418 75.082 12.5424C75.5282 12.7483 75.8993 13.024 76.2007 13.3693C76.5021 13.7158 76.7273 14.1212 76.8775 14.5781C77.0276 15.0393 77.1027 15.5262 77.1027 16.0378C77.1027 16.1633 77.1027 16.2931 77.0973 16.424H77.0984Z" fill="white"></path><path d="M96.0439 4.10263L94.1133 13.1947H93.8827C93.7476 12.7281 93.532 12.3023 93.236 11.9108C92.94 11.5193 92.5892 11.189 92.1774 10.9133C91.7666 10.6377 91.3043 10.4221 90.7981 10.2666C90.2918 10.1111 89.7598 10.036 89.1978 10.036C88.446 10.036 87.7231 10.1518 87.0313 10.3717C86.3395 10.5916 85.697 10.9133 85.1007 11.3295C84.5033 11.7456 83.9627 12.2476 83.4758 12.8386C82.9899 13.4306 82.5684 14.087 82.2219 14.8196C81.8755 15.5468 81.6106 16.3437 81.4197 17.1963C81.2341 18.049 81.1387 18.9467 81.1387 19.8842C81.1387 20.8216 81.2888 21.7247 81.5902 22.5065C81.8862 23.2884 82.297 23.9556 82.814 24.5079C83.331 25.0592 83.9327 25.4807 84.6191 25.7768C85.3066 26.0728 86.0435 26.2176 86.8253 26.2176C87.8228 26.2176 88.7506 26.002 89.6086 25.5655C90.4709 25.1343 91.1831 24.5476 91.7548 23.8054H91.9854L91.5338 25.9366H93.9406L98.5794 4.10156H96.0418L96.0439 4.10263ZM92.8895 19.5023C92.5989 20.3947 92.1978 21.1723 91.6861 21.8341C91.1745 22.4958 90.5728 23.0182 89.881 23.3989C89.1892 23.7797 88.4363 23.9706 87.6244 23.9706C87.0474 23.9706 86.5164 23.8601 86.0499 23.6445C85.5737 23.4289 85.1725 23.1233 84.8315 22.7318C84.4904 22.3403 84.2298 21.8695 84.0388 21.3171C83.8479 20.7658 83.7525 20.1641 83.7525 19.5066C83.7525 18.4534 83.8983 17.4806 84.189 16.5979C84.4797 15.7152 84.8765 14.9526 85.3774 14.3165C85.8836 13.6752 86.4757 13.1786 87.1632 12.8225C87.8496 12.4664 88.5929 12.2862 89.3952 12.2862C90.0065 12.2862 90.5535 12.387 91.0351 12.5919C91.521 12.7924 91.9275 13.0831 92.2685 13.4542C92.6043 13.8253 92.8649 14.2769 93.0504 14.8078C93.236 15.344 93.3261 15.9415 93.3261 16.6086C93.3261 17.6415 93.1802 18.61 92.8895 19.5023Z" fill="white"></path><path d="M121.339 10.3594H115.682L109.509 18.0013H109.207L105.943 10.3594H100.216L105.125 21.4571L94.5347 34.0038H100.116L106.911 25.9457H107.372L111.043 34.0038H116.659L111.229 22.0137L121.339 10.3594Z" fill="white"></path><path d="M14.3831 8.0332C10.8329 8.0332 7.80832 10.6663 7.07684 15.0434C6.32927 19.5417 8.59664 22.2949 12.2626 22.2949C15.9286 22.2949 18.8073 19.6768 19.5442 15.2997C20.2864 10.7918 18.0244 8.0332 14.3841 8.0332H14.3831ZM17.502 15.0445C16.94 18.4841 14.7938 20.3847 12.3313 20.3847C10.0092 20.3847 8.55481 18.6193 9.11683 15.2997C9.67348 11.8547 11.8347 9.94449 14.2973 9.94449C16.6236 9.94449 18.0587 11.7196 17.502 15.0445Z" fill="white"></path><path d="M28.0933 8.22266H23.1435L20.8418 22.1036H22.9376L23.7495 17.2246H26.5982C29.818 17.2246 31.7282 15.2736 32.1551 12.7166C32.5712 10.1543 31.312 8.22373 28.0933 8.22373V8.22266ZM30.0389 12.7113C29.788 14.2804 28.7347 15.4441 26.6893 15.4441H24.0466L24.9497 10.0127H27.5774C29.6485 10.0127 30.2953 11.1314 30.04 12.7102L30.0389 12.7113Z" fill="white"></path><path d="M32.8374 22.1036H41.2366L41.6184 20.2985H35.2292L35.936 16.0512H41.6034L41.9691 14.2558H36.232L36.9388 10.0278H43.534L43.9104 8.22266H35.1391L32.8374 22.1036Z" fill="white"></path><path d="M56.236 8.22266L54.1199 18.4173H53.989L49.0446 8.22266H47.1043L44.1709 22.1036H46.2667L48.3431 11.924H48.4633L53.4474 22.1036H55.3737L58.3125 8.22266H56.236Z" fill="white"></path><path d="M130.465 8.37893C130.555 8.32852 130.63 8.25881 130.691 8.16871C130.751 8.07862 130.781 7.96815 130.781 7.84266C130.781 7.71717 130.756 7.61206 130.695 7.52626C130.64 7.44045 130.569 7.3761 130.479 7.33105C130.393 7.286 130.303 7.26562 130.208 7.26562H129.32V9.11578H129.641V8.44865H130.149L130.493 9.11041H130.855L130.461 8.37893C130.461 8.37893 130.462 8.37893 130.463 8.37893H130.465ZM129.643 7.52089H130.109C130.19 7.52089 130.265 7.54556 130.33 7.59597C130.396 7.64638 130.431 7.73111 130.431 7.84695C130.431 7.96278 130.401 8.04751 130.33 8.10758C130.26 8.16764 130.184 8.19767 130.1 8.19767H129.643V7.52089Z" fill="#092B4D"></path><path d="M131.844 7.44253C131.739 7.20228 131.599 6.99099 131.413 6.80544C131.233 6.61988 131.017 6.47938 130.776 6.37427C130.536 6.26916 130.275 6.21875 129.998 6.21875C129.722 6.21875 129.462 6.26916 129.221 6.37427C128.981 6.47938 128.769 6.61988 128.584 6.80544C128.398 6.98562 128.258 7.20121 128.153 7.44253C128.047 7.68278 127.997 7.94449 127.997 8.22013C127.997 8.49578 128.047 8.75641 128.153 8.99773C128.258 9.23798 128.398 9.44928 128.584 9.63483C128.764 9.82038 128.98 9.96088 129.221 10.066C129.461 10.1711 129.722 10.2215 129.998 10.2215C130.275 10.2215 130.535 10.1657 130.776 10.066C131.016 9.96088 131.228 9.82038 131.413 9.63483C131.599 9.45464 131.739 9.23906 131.844 8.99773C131.949 8.75748 132 8.49685 132 8.22013C132 7.94341 131.949 7.68386 131.844 7.44253ZM131.413 9.03205C131.263 9.27767 131.067 9.47824 130.821 9.6241C130.57 9.7689 130.3 9.84505 129.998 9.84505C129.697 9.84505 129.421 9.77426 129.176 9.6241C128.93 9.47394 128.73 9.27767 128.584 9.03205C128.438 8.78644 128.363 8.51079 128.363 8.20941C128.363 7.90802 128.438 7.63237 128.584 7.38676C128.734 7.14114 128.93 6.94058 129.176 6.79471C129.427 6.64884 129.697 6.57376 129.998 6.57376C130.3 6.57376 130.575 6.64884 130.821 6.79471C131.067 6.94487 131.267 7.14114 131.413 7.38676C131.559 7.63237 131.634 7.90802 131.634 8.20941C131.634 8.51079 131.559 8.78644 131.413 9.03205Z" fill="#092B4D"></path></g><defs><clipPath id="clip0_4242_3906"><rect width="132" height="38.1131" fill="white"></rect></clipPath></defs></svg>